<?xml version="1.0" encoding="UTF-8"?> <!-- Generator: Adobe Illustrator 23.0.4, SVG Export Plug-In . SVG Version: 6.00 Build 0) --> <svg xmlns="http://www.w3.org/2000/svg" xmlns:xlink="http://www.w3.org/1999/xlink" id="Layer_1" x="0px" y="0px" viewBox="0 0 1300 1000" style="enable-background:new 0 0 1300 1000;" xml:space="preserve"> <style type="text/css"> .st0{fill:none;} .st1{clip-path:url(#SVGID_2_);} .st2{fill:#32D8D4;stroke:#000000;stroke-width:1.8622;stroke-miterlimit:10;} .st3{clip-path:url(#SVGID_4_);} .st4{fill:#FECA15;stroke:#000000;stroke-width:1.8622;stroke-miterlimit:10;} .st5{fill:#FFFFFF;} .st6{fill:#D18100;} .st7{fill:none;stroke:#000000;stroke-width:1.8622;stroke-miterlimit:10;} .st8{fill:#D18100;stroke:#000000;stroke-width:2.2153;stroke-miterlimit:10;} .st9{fill:#DDA917;stroke:#000000;stroke-width:2.2153;stroke-miterlimit:10;} .st10{fill:#FECA15;stroke:#000000;stroke-width:2.2153;stroke-miterlimit:10;} .st11{fill:#FECA15;stroke:#000000;stroke-width:2.6121;stroke-miterlimit:10;} .st12{fill:#DDA917;stroke:#000000;stroke-width:0.9311;stroke-miterlimit:10;} .st13{fill:none;stroke:#000000;stroke-width:0.9311;stroke-miterlimit:10;} .st14{fill:none;stroke:#000000;stroke-width:0.9311;stroke-linecap:round;stroke-miterlimit:10;} .st15{stroke:#000000;stroke-width:1.3024;stroke-miterlimit:10;} .st16{fill:#DDA917;stroke:#000000;stroke-width:1.4698;stroke-linecap:round;stroke-miterlimit:10;} .st17{fill:#FFFFFF;stroke:#000000;stroke-width:1.8622;stroke-linecap:round;stroke-linejoin:round;stroke-miterlimit:10;} .st18{fill:#DDA917;stroke:#000000;stroke-width:1.8622;stroke-linecap:round;stroke-linejoin:round;stroke-miterlimit:10;} .st19{fill:none;stroke:#000000;stroke-width:1.8622;stroke-linecap:round;stroke-linejoin:round;stroke-miterlimit:10;} .st20{fill:#DDA917;stroke:#000000;stroke-width:1.8622;stroke-linecap:round;stroke-miterlimit:10;} .st21{fill:none;stroke:#000000;stroke-width:1.8622;stroke-linecap:round;stroke-miterlimit:10;} .st22{stroke:#000000;stroke-width:1.8622;stroke-linecap:round;stroke-linejoin:round;stroke-miterlimit:10;} .st23{clip-path:url(#SVGID_6_);} .st24{fill:#2C8CE2;stroke:#000000;stroke-width:0.9311;stroke-miterlimit:10;} .st25{clip-path:url(#SVGID_8_);} .st26{fill:#D63A41;stroke:#000000;stroke-width:1.1459;stroke-miterlimit:10;} .st27{fill:#EF3F41;stroke:#000000;stroke-width:1.1459;stroke-miterlimit:10;} .st28{fill:#EF3F41;stroke:#000000;stroke-width:2.2918;stroke-miterlimit:10;} .st29{fill:#D63A41;stroke:#000000;stroke-width:2.2918;stroke-miterlimit:10;} .st30{fill:none;stroke:#000000;stroke-width:2.2918;stroke-miterlimit:10;} .st31{clip-path:url(#SVGID_10_);} .st32{fill:#7A744F;} .st33{fill:#7A744F;stroke:#000000;stroke-width:1.8622;stroke-linecap:round;stroke-miterlimit:10;} .st34{fill:#EF3F41;stroke:#000000;stroke-width:1.8622;stroke-linecap:round;stroke-miterlimit:10;} .st35{fill:#D63A41;} .st36{fill:#FFFFFF;stroke:#000000;stroke-width:1.8622;stroke-linecap:round;stroke-miterlimit:10;} .st37{fill:#2C8CE2;stroke:#000000;stroke-width:1.8622;stroke-linecap:round;stroke-miterlimit:10;} .st38{fill:#32D8D4;stroke:#000000;stroke-width:1.8622;stroke-linecap:round;stroke-miterlimit:10;} .st39{fill:#2552C1;stroke:#000000;stroke-width:1.8622;stroke-linecap:round;stroke-miterlimit:10;} .st40{clip-path:url(#SVGID_12_);fill:#1E438E;} .st41{clip-path:url(#SVGID_14_);} .st42{fill:#FFFFFF;stroke:#000000;stroke-width:1.8622;stroke-miterlimit:10;} .st43{fill:#2552C1;stroke:#000000;stroke-width:1.8622;stroke-linecap:round;stroke-linejoin:round;stroke-miterlimit:10;} .st44{fill:#FECA15;stroke:#000000;stroke-width:1.8622;stroke-linecap:round;stroke-linejoin:round;stroke-miterlimit:10;} .st45{fill:#D8D5B8;stroke:#000000;stroke-width:1.8622;stroke-linecap:round;stroke-linejoin:round;stroke-miterlimit:10;} .st46{fill:#EF3F41;stroke:#000000;stroke-width:1.8622;stroke-linecap:round;stroke-linejoin:round;stroke-miterlimit:10;} .st47{fill:none;stroke:#000000;stroke-width:0.9311;stroke-linecap:round;stroke-linejoin:round;stroke-miterlimit:10;} .st48{fill:none;stroke:#000000;stroke-width:0.8672;stroke-linecap:round;stroke-linejoin:round;stroke-miterlimit:10;} .st49{fill:#F34650;stroke:#000000;stroke-width:1.8622;stroke-linecap:round;stroke-linejoin:round;stroke-miterlimit:10;} .st50{fill:#D63A41;stroke:#000000;stroke-width:1.8622;stroke-linecap:round;stroke-linejoin:round;stroke-miterlimit:10;} .st51{fill:#2EBCB5;stroke:#000000;stroke-width:1.8622;stroke-linecap:round;stroke-linejoin:round;stroke-miterlimit:10;} .st52{fill:#059E72;stroke:#000000;stroke-width:1.8622;stroke-linecap:round;stroke-linejoin:round;stroke-miterlimit:10;} .st53{fill:#059E72;stroke:#000000;stroke-width:0.9311;stroke-linecap:round;stroke-linejoin:round;stroke-miterlimit:10;} .st54{fill:#1E438E;stroke:#000000;stroke-width:1.8622;stroke-linecap:round;stroke-linejoin:round;stroke-miterlimit:10;} </style> <path d="M585.99,487.96h-13.24c-3.59,0-6.16,1.75-6.53,5.52l-10.26,80.76c-0.37,3.22,0.19,6.89,4.24,6.89h13.58 c2.85,0,5.8-1.38,6.53-5.42l10.52-82.59C591.12,490.44,590.31,487.96,585.99,487.96z"></path> <path d="M358.99,493.42h-13.23c-3.59,0-6.16,1.74-6.53,5.51l-15.31,121.64c-0.37,3.22,0.2,6.9,4.24,6.9h13.58 c2.85,0,5.79-1.38,6.53-5.42l15.58-123.48C364.12,495.9,363.32,493.42,358.99,493.42z"></path> <g> <path d="M585.99,487.96h-13.24c-3.59,0-6.16,1.75-6.53,5.52l-10.26,80.76c-0.37,3.22,0.19,6.89,4.24,6.89h13.58 c2.85,0,5.8-1.38,6.53-5.42l10.52-82.59C591.12,490.44,590.31,487.96,585.99,487.96z"></path> <path d="M358.99,493.42h-13.23c-3.59,0-6.16,1.74-6.53,5.51l-15.31,121.64c-0.37,3.22,0.2,6.9,4.24,6.9h13.58 c2.85,0,5.79-1.38,6.53-5.42l15.58-123.48C364.12,495.9,363.32,493.42,358.99,493.42z"></path> </g> <g> <path class="st0" d="M806.49,668.1v-0.69h-126.9c0.91,0.44,1.94,0.69,3.03,0.69H806.49z"></path> <path class="st0" d="M684.62,686.1c-7.17,0-14-3.09-18.74-8.47c-2.61-2.97-4.44-6.48-5.41-10.22h-46.47v94.28h192.49V686.1H684.62z "></path> </g> <path d="M684.62,686.1h121.87v-18H682.62c-1.09,0-2.11-0.25-3.03-0.69h-19.13c0.97,3.74,2.8,7.25,5.41,10.22 C670.61,683.01,677.44,686.1,684.62,686.1z"></path> <g> <defs> <path id="SVGID_1_" d="M454.43,494.48L438.3,620.07c-6.24,34.33-31.26,46.03-55.44,46.03H267.64c-34.32,0-39.08-31.21-35.96-58.51 l13.88-110c3.12-31.98,24.97-46.8,55.39-46.8h112.34C449.94,450.79,456.77,471.86,454.43,494.48z"></path> </defs> <clipPath id="SVGID_2_"> <use xlink:href="#SVGID_1_" style="overflow:visible;"></use> </clipPath> <g class="st1"> <g> <rect x="201.21" y="447.14" class="st2" width="280.8" height="227.36"></rect> </g> </g> </g> <g> <defs> <path id="SVGID_3_" d="M616.94,614.02h-67.06l-6,46c-0.45,3.47-3.4,6.07-6.9,6.07h-74.79c-4.2,0-7.44-3.69-6.9-7.85l26.13-201.38 c0.45-3.47,3.4-6.07,6.9-6.07h146.5c34.98,0,45.94,16.32,42.83,42.75l-10.88,84.71C660.55,611.69,639.48,614.02,616.94,614.02z"></path> </defs> <clipPath id="SVGID_4_"> <use xlink:href="#SVGID_3_" style="overflow:visible;"></use> </clipPath> <g class="st3"> <rect x="344.51" y="429.46" class="st4" width="435.59" height="239.88"></rect> <circle class="st5" cx="630.46" cy="540.32" r="40.13"></circle> <polygon class="st6" points="376.32,549.22 376.32,571.97 344.51,571.97 344.51,669.34 376.32,669.34 377.12,669.34 426.41,669.34 426.41,549.22 "></polygon> <rect x="344.51" y="483.7" class="st7" width="435.59" height="185.64"></rect> <g> <g> <polygon class="st8" points="685.03,570.92 685.03,669.03 611.59,669.03 611.51,669.03 563.04,669.03 563.04,570.92 498.31,570.92 498.31,669.64 774.04,669.64 774.04,570.92 "></polygon> <polygon class="st9" points="563.04,540.45 563.04,570.92 563.04,669.03 611.51,669.03 611.51,570.92 611.51,556.9 611.59,556.9 611.59,540.45 "></polygon> <polygon class="st10" points="611.59,556.9 611.59,570.92 611.59,669.03 685.03,669.03 685.03,570.92 685.03,556.9 "></polygon> <rect x="611.51" y="556.9" class="st10" width="0.08" height="14.02"></rect> <rect x="611.51" y="570.92" class="st10" width="0.08" height="98.11"></rect> </g> <g> <g> <path d="M632.19,575.09c0-2.38-1.95-4.33-4.33-4.33c-2.38,0-4.33,1.95-4.33,4.33v9.38h8.66V575.09z"></path> </g> <line class="st10" x1="620.28" y1="584.12" x2="635.44" y2="584.12"></line> </g> <g> <g> <path d="M711.91,589.58c0-2.81-2.3-5.11-5.11-5.11c-2.81,0-5.11,2.3-5.11,5.11v23.4h10.21V589.58z"></path> </g> <line class="st11" x1="697.87" y1="612.56" x2="715.74" y2="612.56"></line> </g> <g> <g> <path d="M735.84,589.58c0-2.81-2.3-5.11-5.11-5.11c-2.81,0-5.11,2.3-5.11,5.11v23.4h10.21V589.58z"></path> </g> <line class="st11" x1="721.79" y1="612.56" x2="739.66" y2="612.56"></line> </g> <g> <g> <path d="M711.91,629.28c0-2.81-2.3-5.11-5.11-5.11c-2.81,0-5.11,2.3-5.11,5.11v23.4h10.21V629.28z"></path> </g> <line class="st11" x1="697.87" y1="652.26" x2="715.74" y2="652.26"></line> </g> <g> <g> <path d="M735.84,629.28c0-2.81-2.3-5.11-5.11-5.11c-2.81,0-5.11,2.3-5.11,5.11v23.4h10.21V629.28z"></path> </g> <line class="st11" x1="721.79" y1="652.26" x2="739.66" y2="652.26"></line> </g> <g> <g> <path d="M759.76,589.58c0-2.81-2.3-5.11-5.11-5.11c-2.81,0-5.11,2.3-5.11,5.11v23.4h10.21V589.58z"></path> </g> <line class="st11" x1="745.72" y1="612.56" x2="763.59" y2="612.56"></line> </g> <g> <g> <path d="M759.76,629.28c0-2.81-2.3-5.11-5.11-5.11c-2.81,0-5.11,2.3-5.11,5.11v23.4h10.21V629.28z"></path> </g> <line class="st11" x1="745.72" y1="652.26" x2="763.59" y2="652.26"></line> </g> <g> <g> <path d="M651.31,575.09c0-2.38-1.95-4.33-4.33-4.33c-2.38,0-4.33,1.95-4.33,4.33v9.38h8.66V575.09z"></path> </g> <line class="st10" x1="639.41" y1="584.12" x2="654.56" y2="584.12"></line> </g> <g> <g> <path d="M670.44,575.09c0-2.38-1.95-4.33-4.33-4.33c-2.38,0-4.33,1.95-4.33,4.33v9.38h8.66V575.09z"></path> </g> <line class="st10" x1="658.53" y1="584.12" x2="673.69" y2="584.12"></line> </g> <g> <g> <path d="M632.19,599.63c0-2.38-1.95-4.33-4.33-4.33c-2.38,0-4.33,1.95-4.33,4.33v9.38h8.66V599.63z"></path> </g> <line class="st10" x1="620.28" y1="608.66" x2="635.44" y2="608.66"></line> </g> <g> <g> <path d="M651.31,599.63c0-2.38-1.95-4.33-4.33-4.33c-2.38,0-4.33,1.95-4.33,4.33v9.38h8.66V599.63z"></path> </g> <line class="st10" x1="639.41" y1="608.66" x2="654.56" y2="608.66"></line> </g> <g> <g> <path d="M670.44,599.63c0-2.38-1.95-4.33-4.33-4.33c-2.38,0-4.33,1.95-4.33,4.33v9.38h8.66V599.63z"></path> </g> <line class="st10" x1="658.53" y1="608.66" x2="673.69" y2="608.66"></line> </g> <g> <g> <path d="M632.19,624.17c0-2.38-1.95-4.33-4.33-4.33c-2.38,0-4.33,1.95-4.33,4.33v9.38h8.66V624.17z"></path> </g> <line class="st10" x1="620.28" y1="633.19" x2="635.44" y2="633.19"></line> </g> <g> <g> <path d="M651.31,624.17c0-2.38-1.95-4.33-4.33-4.33c-2.38,0-4.33,1.95-4.33,4.33v9.38h8.66V624.17z"></path> </g> <line class="st10" x1="639.41" y1="633.19" x2="654.56" y2="633.19"></line> </g> <g> <g> <path d="M670.44,624.17c0-2.38-1.95-4.33-4.33-4.33c-2.38,0-4.33,1.95-4.33,4.33v9.38h8.66V624.17z"></path> </g> <line class="st10" x1="658.53" y1="633.19" x2="673.69" y2="633.19"></line> </g> <g> <g> <path d="M632.19,645.41c0-2.38-1.95-4.33-4.33-4.33c-2.38,0-4.33,1.95-4.33,4.33v9.38h8.66V645.41z"></path> </g> <line class="st10" x1="620.28" y1="654.43" x2="635.44" y2="654.43"></line> </g> <g> <g> <path d="M651.31,645.41c0-2.38-1.95-4.33-4.33-4.33c-2.38,0-4.33,1.95-4.33,4.33v9.38h8.66V645.41z"></path> </g> <line class="st10" x1="639.41" y1="654.43" x2="654.56" y2="654.43"></line> </g> <g> <g> <path d="M670.44,645.41c0-2.38-1.95-4.33-4.33-4.33c-2.38,0-4.33,1.95-4.33,4.33v9.38h8.66V645.41z"></path> </g> <line class="st10" x1="658.53" y1="654.43" x2="673.69" y2="654.43"></line> </g> <g> <rect x="575.17" y="554.53" width="7.22" height="16.96"></rect> <rect x="592.13" y="554.53" width="7.22" height="16.96"></rect> </g> <g> <rect x="575.17" y="580.15" width="7.22" height="16.96"></rect> <rect x="592.13" y="580.15" width="7.22" height="16.96"></rect> </g> <g> <rect x="575.17" y="605.77" width="7.22" height="16.96"></rect> <rect x="592.13" y="605.77" width="7.22" height="16.96"></rect> </g> <g> <rect x="575.17" y="635.5" width="7.22" height="16.96"></rect> <rect x="592.13" y="635.5" width="7.22" height="16.96"></rect> </g> <line class="st12" x1="562.54" y1="545.5" x2="611.98" y2="545.5"></line> <line class="st13" x1="612.34" y1="565.71" x2="684.51" y2="565.71"></line> <line class="st14" x1="519.96" y1="603.24" x2="561.1" y2="603.24"></line> <line class="st14" x1="511.3" y1="633.56" x2="561.1" y2="633.56"></line> <rect x="545.22" y="581.59" width="6.13" height="13.71"></rect> <rect x="531.69" y="581.59" width="6.13" height="13.71"></rect> <rect x="518.15" y="567.52" width="6.13" height="13.71"></rect> <rect x="545.22" y="612.63" width="6.13" height="13.71"></rect> <rect x="531.69" y="612.63" width="6.13" height="13.71"></rect> <rect x="518.15" y="612.63" width="6.13" height="13.71"></rect> <rect x="545.22" y="643.66" width="6.13" height="13.71"></rect> <rect x="531.69" y="643.66" width="6.13" height="13.71"></rect> <rect x="518.15" y="643.66" width="6.13" height="13.71"></rect> <rect x="506.43" y="643.66" width="6.13" height="13.71"></rect> <rect x="556.77" y="571.49" width="5.41" height="97.99"></rect> </g> <rect x="381.09" y="607.5" class="st15" width="4.14" height="62.25"></rect> <path class="st16" d="M408.21,611.33c0-6.76-5-12.33-11.5-13.26c0-0.05,0.01-0.1,0.01-0.15c0-6.08-4.93-11.01-11.01-11.01 c-5.1,0-9.38,3.48-10.63,8.19c-0.86-0.33-1.79-0.53-2.77-0.53c-4.23,0-7.66,3.43-7.66,7.66c0,1.61,0.5,3.1,1.35,4.34 c-3.68,2.28-6.14,6.34-6.14,10.99c0,7.14,5.79,12.93,12.93,12.93c1.06,0,2.08-0.14,3.07-0.38c1.63,4.68,6.06,8.04,11.3,8.04 c6.61,0,11.97-5.36,11.97-11.97c0-0.71-0.07-1.41-0.19-2.09C404.31,622.35,408.21,617.29,408.21,611.33z"></path> <path d="M408.21,611.33c0-6.76-5-12.33-11.5-13.26c0-0.05,0.01-0.1,0.01-0.15c0-6.08-4.93-11.01-11.01-11.01 c-1.91,0-3.7,0.49-5.26,1.34c3.42,1.87,5.74,5.5,5.74,9.67c0,0.05-0.01,0.1-0.01,0.15c6.5,0.93,11.5,6.5,11.5,13.26 c0,5.97-3.9,11.02-9.29,12.76c0.12,0.68,0.19,1.37,0.19,2.09c0,4.72-2.74,8.79-6.71,10.74c1.59,0.78,3.38,1.23,5.27,1.23 c6.61,0,11.97-5.36,11.97-11.97c0-0.71-0.07-1.41-0.19-2.09C404.31,622.35,408.21,617.29,408.21,611.33z"></path> <rect x="775.13" y="607.5" class="st15" width="4.14" height="62.25"></rect> <path class="st16" d="M802.25,611.33c0-6.76-5-12.33-11.5-13.26c0-0.05,0.01-0.1,0.01-0.15c0-6.08-4.93-11.01-11.01-11.01 c-5.1,0-9.38,3.48-10.63,8.19c-0.86-0.33-1.79-0.53-2.77-0.53c-4.23,0-7.66,3.43-7.66,7.66c0,1.61,0.5,3.1,1.35,4.34 c-3.68,2.28-6.14,6.34-6.14,10.99c0,7.14,5.79,12.93,12.93,12.93c1.06,0,2.08-0.14,3.07-0.38c1.63,4.68,6.06,8.04,11.3,8.04 c6.61,0,11.97-5.36,11.97-11.97c0-0.71-0.07-1.41-0.19-2.09C798.35,622.35,802.25,617.29,802.25,611.33z"></path> <path d="M802.25,611.33c0-6.76-5-12.33-11.5-13.26c0-0.05,0.01-0.1,0.01-0.15c0-6.08-4.93-11.01-11.01-11.01 c-1.91,0-3.7,0.49-5.26,1.34c3.42,1.87,5.74,5.5,5.74,9.67c0,0.05-0.01,0.1-0.01,0.15c6.5,0.93,11.5,6.5,11.5,13.26 c0,5.97-3.9,11.02-9.29,12.76c0.12,0.68,0.19,1.37,0.19,2.09c0,4.72-2.74,8.79-6.71,10.74c1.59,0.78,3.38,1.23,5.27,1.23 c6.61,0,11.97-5.36,11.97-11.97c0-0.71-0.07-1.41-0.19-2.09C798.35,622.35,802.25,617.29,802.25,611.33z"></path> <g> <polygon class="st17" points="495.82,672.44 423.85,672.57 478.59,476.78 545.45,495.47 "></polygon> <g> <g> <path class="st18" d="M489.59,497.01c0.77-2.75-0.85-5.62-3.6-6.39c-2.75-0.77-5.62,0.85-6.39,3.6l-6.42,22.98l9.99,2.79 L489.59,497.01z"></path> </g> <g> <path class="st18" d="M504.91,501.29c0.77-2.75-0.85-5.62-3.6-6.39c-2.75-0.77-5.62,0.85-6.39,3.6l-6.42,22.98l9.99,2.79 L504.91,501.29z"></path> </g> <g> <path class="st18" d="M520.23,505.57c0.77-2.75-0.85-5.62-3.6-6.39c-2.75-0.77-5.62,0.85-6.39,3.6l-6.42,22.98l9.99,2.79 L520.23,505.57z"></path> </g> <g> <path class="st18" d="M535.54,509.85c0.77-2.75-0.85-5.62-3.6-6.39c-2.75-0.77-5.62,0.85-6.39,3.6l-6.42,22.98l9.99,2.79 L535.54,509.85z"></path> </g> </g> <line class="st19" x1="535.89" y1="534.72" x2="466.41" y2="515.3"></line> <g> <g> <path class="st18" d="M477.77,539.3c0.77-2.75-0.85-5.62-3.6-6.39c-2.75-0.77-5.62,0.85-6.39,3.6l-6.42,22.98l9.99,2.79 L477.77,539.3z"></path> </g> <g> <path class="st18" d="M493.08,543.59c0.77-2.75-0.85-5.62-3.6-6.39c-2.75-0.77-5.62,0.85-6.39,3.6l-6.42,22.98l9.99,2.79 L493.08,543.59z"></path> </g> <g> <path class="st18" d="M508.4,547.87c0.77-2.75-0.85-5.62-3.6-6.39c-2.75-0.77-5.62,0.85-6.39,3.6l-6.42,22.98l9.99,2.79 L508.4,547.87z"></path> </g> <g> <path class="st18" d="M523.72,552.15c0.77-2.75-0.85-5.62-3.6-6.39c-2.75-0.77-5.62,0.85-6.39,3.6l-6.42,22.98l9.99,2.79 L523.72,552.15z"></path> </g> </g> <line class="st19" x1="524.06" y1="577.02" x2="454.59" y2="557.59"></line> <g> <g> <path class="st20" d="M465.94,581.6c0.77-2.75-0.85-5.62-3.6-6.39c-2.75-0.77-5.62,0.85-6.39,3.6l-6.42,22.98l9.99,2.79 L465.94,581.6z"></path> </g> <g> <path class="st20" d="M481.26,585.88c0.77-2.75-0.85-5.62-3.6-6.39c-2.75-0.77-5.62,0.85-6.39,3.6l-6.42,22.98l9.99,2.79 L481.26,585.88z"></path> </g> <g> <path class="st20" d="M496.58,590.16c0.77-2.75-0.85-5.62-3.6-6.39c-2.75-0.77-5.62,0.85-6.39,3.6l-6.42,22.98l9.99,2.79 L496.58,590.16z"></path> </g> <g> <path class="st20" d="M511.89,594.45c0.77-2.75-0.85-5.62-3.6-6.39c-2.75-0.77-5.62,0.85-6.39,3.6l-6.42,22.98l9.99,2.79 L511.89,594.45z"></path> </g> </g> <line class="st21" x1="512.24" y1="619.31" x2="442.76" y2="599.89"></line> <g> <g> <path class="st20" d="M454.12,623.9c0.77-2.75-0.85-5.62-3.6-6.39s-5.62,0.85-6.39,3.6l-6.42,22.98l9.99,2.79L454.12,623.9z"></path> </g> <g> <path class="st20" d="M469.43,628.18c0.77-2.75-0.85-5.62-3.6-6.39c-2.75-0.77-5.62,0.85-6.39,3.6l-6.42,22.98l9.99,2.79 L469.43,628.18z"></path> </g> <g> <path class="st20" d="M484.75,632.46c0.77-2.75-0.85-5.62-3.6-6.39s-5.62,0.85-6.39,3.6l-6.42,22.98l9.99,2.79L484.75,632.46z"></path> </g> <g> <path class="st20" d="M500.07,636.74c0.77-2.75-0.85-5.62-3.6-6.39c-2.75-0.77-5.62,0.85-6.39,3.6l-6.42,22.98l9.99,2.79 L500.07,636.74z"></path> </g> </g> <line class="st21" x1="498.84" y1="661.17" x2="432.51" y2="642.63"></line> <rect x="487.33" y="451.96" transform="matrix(0.9631 0.2692 -0.2692 0.9631 145.4265 -121.7924)" class="st17" width="58.79" height="34.65"></rect> <line class="st19" x1="490.98" y1="455.06" x2="547.08" y2="470.75"></line> <g> <g> <path class="st18" d="M504.91,468.15c0.79-2.81-0.87-5.76-3.69-6.55c-2.81-0.79-5.76,0.87-6.55,3.69l-4.1,14.67l10.23,2.86 L504.91,468.15z"></path> </g> <g> <path class="st22" d="M521.28,472.73c0.79-2.81-0.87-5.76-3.69-6.55c-2.81-0.79-5.76,0.87-6.55,3.69l-4.1,14.67l10.23,2.86 L521.28,472.73z"></path> </g> <g> <path class="st18" d="M537.65,477.3c0.79-2.81-0.87-5.76-3.69-6.55c-2.81-0.79-5.76,0.87-6.55,3.69l-4.1,14.67l10.23,2.86 L537.65,477.3z"></path> </g> </g> <line class="st21" x1="428.47" y1="647.38" x2="499.83" y2="667.33"></line> <g> <line class="st21" x1="444.19" y1="651.78" x2="438.3" y2="672.44"></line> <line class="st21" x1="457.5" y1="655.5" x2="452.85" y2="672.44"></line> <line class="st21" x1="470.8" y1="659.22" x2="466.95" y2="672.44"></line> <line class="st21" x1="484.1" y1="662.94" x2="481.27" y2="672.44"></line> </g> <line class="st0" x1="511.7" y1="499.67" x2="511.7" y2="499.22"></line> </g> </g> </g> <g> <defs> <path id="SVGID_5_" d="M863.3,518.9h-74.11c-3.06,0-5.26,1.49-5.58,4.71l-1.4,11.07c-0.31,2.75,0.17,5.89,3.62,5.89h73.27 c3.31,0,5.67,2.72,5.25,6l-3.07,23.91c-0.33,2.51-2.47,4.39-5,4.39h-74.24c-3.06,0-5.26,1.49-5.57,4.71l-1.4,11.07 c-0.31,2.75,0.17,5.89,3.62,5.89h73.59c3.04,0,5.39,2.53,5,5.55l-7.67,57.94c-0.45,3.47-3.4,6.06-6.9,6.06h-159.1 c-4.2,0-7.44-3.68-6.9-7.85l25.87-201.37c0.45-3.47,3.4-6.07,6.9-6.07h159.44c4.2,0,7.44,3.69,6.9,7.85l-7.32,55.67 C868.17,516.94,865.94,518.9,863.3,518.9z"></path> </defs> <clipPath id="SVGID_6_"> <use xlink:href="#SVGID_5_" style="overflow:visible;"></use> </clipPath> <g class="st23"> <path class="st24" d="M688.74,496.13c27.63-8.88,32.09-37.85,61.95-47.45c29.86-9.6,44.25,15.28,71.88,6.4 c27.08-8.7,30.41-41.39,58.64-51.73v-13.08h-6.87h-22.17c-12.23,13.68-19.56,31.34-38.41,37.4c-27.63,8.88-42.02-16-71.88-6.4 c-29.86,9.6-34.32,38.57-61.95,47.45c-4.79,1.54-9.6,2.02-14.49,1.84v13.35V497C673.4,498.36,681.1,498.59,688.74,496.13z"></path> <path class="st24" d="M697.55,523.54c27.63-8.88,32.09-37.85,61.95-47.45c29.86-9.6,44.25,15.28,71.88,6.4 c23.98-7.71,29.33-34.21,49.83-47.37v-5.62v-23.05v-3.1c-28.23,10.34-31.56,43.03-58.64,51.73c-27.63,8.88-42.02-16-71.88-6.4 c-29.86,9.6-34.32,38.57-61.95,47.45c-7.63,2.45-15.34,2.23-23.3,0.87v9.96v15.6C676.58,525.25,687.13,526.89,697.55,523.54z"></path> <path class="st24" d="M706.36,550.95c27.63-8.88,32.09-37.85,61.95-47.45c29.86-9.6,44.25,15.28,71.88,6.4 c20.14-6.47,27.14-26.22,41.02-40.17v-17.18v-17.43c-20.5,13.15-25.85,39.66-49.83,47.37c-27.63,8.88-42.02-16-71.88-6.4 c-29.86,9.6-34.32,38.57-61.95,47.45c-10.42,3.35-20.97,1.71-32.11-0.98v7.45v17.71C679.89,551.47,693.23,555.17,706.36,550.95z"></path> <path class="st24" d="M679.93,468.72c27.63-8.88,32.09-37.85,61.95-47.45c29.86-9.6,44.25,15.28,71.88,6.4 c18.84-6.05,26.18-23.72,38.41-37.4h-0.89h-23.05h-7c-4.48,4.31-9.67,7.87-16.27,9.99c-27.63,8.88-42.02-16-71.88-6.4 c-29.86,9.6-34.32,38.57-61.95,47.45c-1.89,0.61-3.78,1.04-5.68,1.35v18.2v9.7C670.33,470.74,675.14,470.26,679.93,468.72z"></path> <path class="st24" d="M733.07,393.86c29.86-9.6,44.25,15.28,71.88,6.4c6.61-2.12,11.79-5.68,16.27-9.99h-16.05h-23.05h-23.05 h-23.05h-23.05H692.6c-7.7,8.86-15.15,17.66-27.16,22.48v1.99v23.05v4.86c1.9-0.3,3.79-0.74,5.68-1.35 C698.75,432.43,703.21,403.46,733.07,393.86z"></path> <path class="st24" d="M715.17,578.37c27.63-8.88,32.09-37.85,61.95-47.45c29.86-9.6,44.25,15.28,71.88,6.4 c15.47-4.97,23.18-17.77,32.21-29.76v-8.89v-23.05v-5.88c-13.88,13.95-20.88,33.7-41.02,40.17c-27.63,8.88-42.02-16-71.88-6.4 c-29.86,9.6-34.32,38.57-61.95,47.45c-13.12,4.22-26.47,0.52-40.91-3.23v5.34v19.88C683.36,577.09,699.42,583.43,715.17,578.37z"></path> <path class="st24" d="M692.6,390.28h-2.69h-24.47v22.48C677.45,407.94,684.9,399.14,692.6,390.28z"></path> <path class="st24" d="M856.75,730.62h24.47v-2.88c-12.69-4.32-24.89-10.58-42.43-4.95c-6.01,1.93-10.97,4.65-15.32,7.83h10.23 H856.75z"></path> <path class="st24" d="M759.21,715.42c27.63-8.88,32.09-37.85,61.95-47.45c25.3-8.13,39.5,8.48,60.05,8.35v-16.27V647.8 c-25.69,6.22-40.11-16.48-68.86-7.24c-29.86,9.6-34.32,38.57-61.95,47.45c-25.37,8.15-51.53-13.26-84.96-7.42v10.8v18.76 C703.16,698.24,731.66,724.27,759.21,715.42z"></path> <path class="st24" d="M723.97,605.78c27.63-8.88,32.09-37.85,61.95-47.45c29.86-9.6,44.25,15.28,71.88,6.4 c10.38-3.34,17.27-10.2,23.4-17.97v-1.98v-23.05v-14.17c-9.03,11.99-16.74,24.79-32.21,29.76c-27.63,8.88-42.02-16-71.88-6.4 c-29.86,9.6-34.32,38.57-61.95,47.45c-15.75,5.06-31.81-1.28-49.72-5.41v3.17v22.47C686.98,602.16,705.69,611.65,723.97,605.78z"></path> <path class="st24" d="M881.22,727.74v-21.58v-3.34c-16.21-3.35-29.7-14.36-51.24-7.43c-20.99,6.75-29.43,23.06-42.19,35.24h22.86 h12.82c4.35-3.18,9.31-5.9,15.32-7.83C856.33,717.16,868.53,723.41,881.22,727.74z"></path> <path class="st24" d="M829.97,695.38c21.54-6.92,35.03,4.09,51.24,7.43V683.1v-6.78c-20.55,0.14-34.75-16.48-60.05-8.35 c-29.86,9.6-34.32,38.57-61.95,47.45c-27.55,8.85-56.05-17.18-93.77-5.27v4.29v16.18h6.87h23.05h23.05h23.05h23.05h23.05h0.2 C800.54,718.44,808.98,702.13,829.97,695.38z"></path> <path class="st24" d="M750.4,688.01c27.63-8.88,32.09-37.85,61.95-47.45c28.75-9.24,43.16,13.47,68.86,7.24v-10.81v-19.84 c-1.81,0.92-3.72,1.74-5.78,2.4c-27.63,8.88-42.02-16-71.88-6.4c-29.86,9.6-34.32,38.57-61.95,47.45 c-23.09,7.42-46.85-9.66-76.15-8.38v16.11v12.25C698.87,674.74,725.04,696.16,750.4,688.01z"></path> <path class="st24" d="M732.78,633.19c27.63-8.88,32.09-37.85,61.95-47.45c29.86-9.6,44.25,15.28,71.88,6.4 c5.8-1.86,10.5-4.83,14.59-8.44v-15.87v-21.07c-6.14,7.78-13.02,14.64-23.4,17.97c-27.63,8.88-42.02-16-71.88-6.4 c-29.86,9.6-34.32,38.57-61.95,47.45c-18.29,5.88-36.99-3.61-58.53-7.18v0.58v23.05v2.71 C690.78,626.75,712.05,639.85,732.78,633.19z"></path> <path class="st24" d="M741.59,660.6c27.63-8.88,32.09-37.85,61.95-47.45c29.86-9.6,44.25,15.28,71.88,6.4 c2.06-0.66,3.97-1.48,5.78-2.4v-3.21v-23.05v-7.19c-4.1,3.61-8.8,6.58-14.59,8.44c-27.63,8.88-42.02-16-71.88-6.4 c-29.86,9.6-34.32,38.57-61.95,47.45c-20.74,6.66-42.01-6.43-67.34-8.25v20.34v6.94C694.74,650.93,718.5,668.02,741.59,660.6z"></path> </g> </g> <g> <defs> <path id="SVGID_7_" d="M1097.73,458.65l-26.03,201.38c-0.45,3.47-3.4,6.07-6.9,6.07h-84.61c-1.03,0-1.97-0.59-2.41-1.52 l-35.48-74.85c-1.09-1.87-1.44-2.85-4.55-2.85l-16.36,13.05c-0.27,3.1-0.85,3.06,0.93,6.81c1.78,3.75,24.51,51.52,24.51,51.52 l1.59,3.63c0.55,1.26,0.1,2.8-1.13,3.43c-0.94,0.49-2.01,0.77-3.18,0.77H877.8c-4.19,0-7.43-3.68-6.9-7.84l25.76-201.38 c0.44-3.47,3.4-6.08,6.9-6.08h83.83c1.9,0,3.64,1.09,4.47,2.8l38.25,80.78c0.37,0.77,1.3,1.45,2.2,1.45 c0.36,0,0.72-0.11,1.04-0.36l16.13-14.82c1.22-1.13,0.97-2.46,0.56-3.33l-27.96-59.45c-1.58-3.27,0.8-7.06,4.43-7.06h64.33 C1095.03,450.8,1098.27,454.49,1097.73,458.65z"></path> </defs> <clipPath id="SVGID_8_"> <use xlink:href="#SVGID_7_" style="overflow:visible;"></use> </clipPath> <g class="st25"> <polygon class="st26" points="864.31,697.41 864.31,708.31 915.11,708.31 995.8,687.38 1076.5,708.31 1127.3,708.31 1127.3,697.41 995.8,663.3 "></polygon> <polygon class="st27" points="864.31,661.3 864.31,697.41 995.8,663.3 1127.3,697.41 1127.3,661.3 995.8,627.18 "></polygon> <polygon class="st26" points="864.31,637.22 864.31,661.3 995.8,627.18 1127.3,661.3 1127.3,637.22 995.8,603.1 "></polygon> <polygon class="st27" points="864.31,601.1 864.31,637.22 995.8,603.1 1127.3,637.22 1127.3,601.1 995.8,566.99 "></polygon> <polygon class="st26" points="864.31,516.83 864.31,540.91 995.8,506.79 1127.3,540.91 1127.3,516.83 995.8,482.72 "></polygon> <polygon class="st27" points="968.65,333.26 864.31,360.33 864.31,396.44 995.8,362.33 1127.3,396.44 1127.3,360.33 1022.96,333.26 "></polygon> <polygon class="st26" points="1022.96,333.26 1127.3,360.33 1127.3,336.25 1115.76,333.26 "></polygon> <polygon class="st26" points="864.31,396.44 864.31,420.52 995.8,386.41 1127.3,420.52 1127.3,396.44 995.8,362.33 "></polygon> <polygon class="st27" points="864.31,540.91 864.31,577.03 995.8,542.91 1127.3,577.03 1127.3,540.91 995.8,506.79 "></polygon> <polygon class="st27" points="864.31,480.72 864.31,516.83 995.8,482.72 1127.3,516.83 1127.3,480.72 995.8,446.6 "></polygon> <polygon class="st26" points="864.31,577.03 864.31,601.1 995.8,566.99 1127.3,601.1 1127.3,577.03 995.8,542.91 "></polygon> <polygon class="st27" points="864.31,420.52 864.31,456.64 995.8,422.52 1127.3,456.64 1127.3,420.52 995.8,386.41 "></polygon> <polygon class="st26" points="864.31,456.64 864.31,480.72 995.8,446.6 1127.3,480.72 1127.3,456.64 995.8,422.52 "></polygon> <g> <polygon class="st0" points="968.65,333.26 1022.96,333.26 995.8,326.21 "></polygon> <polygon class="st0" points="995.8,326.21 1022.96,333.26 1115.76,333.26 995.8,302.14 875.84,333.26 968.65,333.26 "></polygon> <polygon class="st28" points="915.11,708.31 1076.5,708.31 995.8,687.38 "></polygon> <polygon class="st28" points="864.31,333.26 864.31,336.25 875.84,333.26 "></polygon> <polygon class="st29" points="875.84,333.26 864.31,336.25 864.31,360.33 968.65,333.26 "></polygon> <polygon class="st28" points="1115.76,333.26 1127.3,336.25 1127.3,333.26 "></polygon> <polygon class="st30" points="1115.76,333.26 1022.96,333.26 968.65,333.26 864.31,360.33 864.31,396.44 864.31,420.52 864.31,456.64 864.31,480.72 864.31,516.83 864.31,540.91 864.31,577.03 864.31,601.1 864.31,637.22 864.31,661.3 864.31,697.41 864.31,708.31 915.11,708.31 995.8,687.38 1076.5,708.31 1127.3,708.31 1127.3,697.41 1127.3,661.3 1127.3,637.22 1127.3,601.1 1127.3,577.03 1127.3,540.91 1127.3,516.83 1127.3,480.72 1127.3,456.64 1127.3,420.52 1127.3,396.44 1127.3,360.33 1127.3,336.25 "></polygon> </g> </g> </g> <g> <path d="M1111.08,439.96c-5.12-5.82-12.5-9.16-20.25-9.16h-64.33c-7.72,0-14.85,3.49-19.55,9.46c-4.68-5.87-11.89-9.46-19.56-9.46 h-81.83c-7,0-13.46,2.72-18.3,7.2c-4.96-4.6-11.5-7.2-18.33-7.2H709.49c-11.25,0-21.1,7.01-25.08,17.09 c-10.9-11.33-27.56-17.09-49.6-17.09h-146.5c-11.94,0-22.3,7.9-25.74,18.98c-0.29-0.35-0.58-0.7-0.88-1.04 c-10.75-11.92-27.03-17.96-48.41-17.96H300.94c-20.04,0-37.47,5.46-50.4,15.78c-14.19,11.32-22.78,28.19-24.86,48.78l-13.85,109.74 l-0.01,0.12l-0.01,0.12c-3.2,27.96,1.65,49.39,14.41,63.69c6.95,7.79,19.78,17.08,41.42,17.08h115.22c17.5,0,33.44-4.8,46.11-13.9 c2.56-1.83,4.95-3.85,7.21-6.01c1.07,3.93,3.01,7.62,5.76,10.74c5.12,5.82,12.5,9.16,20.25,9.16h74.79 c13.52,0,25.02-10.12,26.74-23.53l3.72-28.54h49.5c12.64,0,27.23-0.6,40.5-7.73c1.2-0.64,2.35-1.35,3.49-2.07l-4.04,31.48 c-0.99,7.68,1.38,15.43,6.49,21.24c5.12,5.82,12.49,9.15,20.24,9.15h159.1c7.11,0,13.66-2.8,18.53-7.41 c4.99,4.73,11.62,7.41,18.56,7.41h64.32c4.3,0,8.58-1.04,12.38-3.01c2.49-1.29,4.65-3,6.42-4.99c4.25,4.98,10.56,8,17.27,8h84.61 c13.51,0,25-10.1,26.74-23.5l26.03-201.38C1118.56,453.53,1116.19,445.79,1111.08,439.96z M382.86,666.1H267.64 c-34.32,0-39.08-31.21-35.96-58.51l13.88-110c3.12-31.98,24.97-46.8,55.39-46.8h112.34c36.66,0,43.49,21.07,41.15,43.69 L438.3,620.07C432.06,654.4,407.04,666.1,382.86,666.1z M616.94,614.02h-67.06l-6,46c-0.45,3.47-3.4,6.07-6.9,6.07h-74.79 c-4.2,0-7.44-3.69-6.9-7.85l26.13-201.38c0.45-3.47,3.4-6.07,6.9-6.07h146.5c34.98,0,45.94,16.32,42.83,42.75l-10.88,84.71 C660.55,611.69,639.48,614.02,616.94,614.02z M842.72,666.1h-159.1c-4.2,0-7.44-3.68-6.9-7.85l25.87-201.37 c0.45-3.47,3.4-6.07,6.9-6.07h159.44c4.2,0,7.44,3.69,6.9,7.85l-7.32,55.67c-0.34,2.61-2.57,4.57-5.2,4.57l-74.11,0 c-3.06,0-5.26,1.49-5.58,4.71l-1.4,11.07c-0.31,2.75,0.17,5.89,3.62,5.89h73.27c3.31,0,5.67,2.72,5.25,6l-3.07,23.91 c-0.33,2.51-2.47,4.39-5,4.39l-74.24,0c-3.06,0-5.26,1.49-5.58,4.71l-1.4,11.07c-0.31,2.75,0.17,5.89,3.62,5.89h73.59 c3.04,0,5.39,2.53,5,5.55l-7.67,57.94C849.17,663.5,846.21,666.1,842.72,666.1z M1097.73,458.65l-26.03,201.38 c-0.45,3.47-3.4,6.07-6.9,6.07h-84.61c-1.03,0-1.97-0.59-2.41-1.52l-35.48-74.85c-1.09-1.87-1.44-2.85-4.55-2.85l-16.36,13.05 c-0.27,3.1-0.85,3.06,0.93,6.81s24.51,51.52,24.51,51.52l1.59,3.63c0.55,1.26,0.1,2.8-1.13,3.43c-0.94,0.49-2.01,0.77-3.18,0.77 H877.8c-4.19,0-7.43-3.68-6.9-7.84l25.76-201.38c0.44-3.47,3.4-6.08,6.9-6.08h83.83c1.9,0,3.64,1.09,4.47,2.8l38.25,80.78 c0.37,0.77,1.3,1.45,2.2,1.45c0.36,0,0.72-0.11,1.04-0.36l16.13-14.82c1.22-1.13,0.97-2.46,0.56-3.33l-27.96-59.45 c-1.58-3.27,0.8-7.06,4.43-7.06h64.33C1095.03,450.8,1098.27,454.49,1097.73,458.65z"></path> <path d="M584.99,485.96h-13.24c-3.59,0-6.16,1.75-6.53,5.52l-10.26,80.76c-0.37,3.22,0.19,6.89,4.24,6.89h13.58 c2.85,0,5.8-1.38,6.53-5.42l10.52-82.59C590.12,488.44,589.31,485.96,584.99,485.96z"></path> <path d="M357.99,491.42h-13.23c-3.59,0-6.16,1.74-6.53,5.51l-15.31,121.64c-0.37,3.22,0.2,6.9,4.24,6.9h13.58 c2.85,0,5.79-1.38,6.53-5.42l15.58-123.48C363.12,493.9,362.32,491.42,357.99,491.42z"></path> </g> <g> <defs> <rect id="SVGID_9_" x="583.77" y="290.29" width="268.6" height="386.77"></rect> </defs> <clipPath id="SVGID_10_"> <use xlink:href="#SVGID_9_" style="overflow:visible;"></use> </clipPath> <g class="st31"> <rect x="708.18" y="508.67" class="st32" width="20.38" height="27.16"></rect> <circle cx="731.22" cy="504.61" r="11.46"></circle> <path d="M766.29,479.26c1.85-0.98,3.47-2.47,4.59-4.42c3.19-5.52,1.3-12.59-4.23-15.78c-0.77-0.44-1.57-0.78-2.38-1.03 c1.5-5.01-0.55-10.58-5.28-13.31c-3.06-1.77-6.6-1.97-9.69-0.86c-1.45-2-3.33-3.73-5.6-5.05c-6.14-3.54-13.47-3.09-19.03,0.53 c-1.33-1.38-2.86-2.61-4.61-3.62c-10.02-5.79-22.84-2.35-28.63,7.67c-0.03,0.05-0.05,0.09-0.07,0.14 c-7.73-1.92-15.61,2.7-17.65,10.44c-0.61,2.31-0.62,4.62-0.15,6.81c-6.22,0.18-11.21,5.27-11.21,11.53 c0,6.24,4.95,11.31,11.13,11.53c-4.5,1.58-7.74,5.85-7.74,10.89c0,6.38,5.17,11.55,11.55,11.55c0.59,0,1.17-0.06,1.73-0.14 c-0.23,0.92-0.37,1.87-0.37,2.86c0,6.38,5.17,11.55,11.55,11.55c6.38,0,11.55-5.17,11.55-11.55c0-2.91-1.08-5.55-2.85-7.58 c1.12-0.88,2.1-1.98,2.85-3.29c2.36-4.09,1.93-9.01-0.68-12.59c3.81-0.16,7.47-2.2,9.52-5.76c0.85-1.47,1.32-3.04,1.48-4.62 c0.92,2.36,2.61,4.43,4.97,5.79c4.54,2.62,10.12,1.8,13.74-1.64c0.95,2.18,2.57,4.1,4.8,5.38c0.95,0.55,1.94,0.93,2.95,1.19 c-0.53,4.45,1.57,9,5.69,11.38c0.14,0.08,0.28,0.14,0.41,0.21c-0.88,0.79-1.66,1.73-2.28,2.81c-3.19,5.52-1.3,12.59,4.23,15.78 c5.52,3.19,12.59,1.3,15.78-4.23c2.23-3.86,1.97-8.46-0.26-11.97c3.01-0.7,5.74-2.58,7.41-5.47 C772.51,489.21,771.03,482.68,766.29,479.26z"></path> <path class="st33" d="M729,528.67c-2.12-14.09,0-24.06,0-24.06c0.77,0.29,1.59,0.47,2.46,0.47c3.9,0,7.06-3.16,7.06-7.06 c0-3.9-3.16-7.06-7.06-7.06c-0.87,0-1.69,0.18-2.46,0.47v-14.41h-28.01c-2.05,16.22-8.83,24.44,0.8,43.26c0,0,2.74,4.46,17.74-0.6 l-12.75,7.37"></path> <circle cx="713.07" cy="478.02" r="5.64"></circle> <circle cx="704.51" cy="481.67" r="5.64"></circle> <circle cx="722.87" cy="479.53" r="7.53"></circle> <circle cx="715.34" cy="481.18" r="7.53"></circle> <circle cx="739.26" cy="492.03" r="7.53"></circle> <circle cx="729.97" cy="488.69" r="7.53"></circle> <line class="st21" x1="706.06" y1="511.04" x2="709.48" y2="511.04"></line> <circle cx="702.85" cy="497.31" r="1.61"></circle> <circle cx="713.83" cy="497.31" r="1.61"></circle> <polyline class="st19" points="708.34,495.78 706.3,503.66 708.84,504.53 "></polyline> <g> <g> <circle class="st34" cx="718.27" cy="380.16" r="41.94"></circle> <path class="st35" d="M717.91,398.51c-19.07,0-35.15-12.73-40.25-30.15c-1.09,3.74-1.69,7.7-1.69,11.79 c0,23.16,18.78,41.94,41.94,41.94c23.16,0,41.94-18.78,41.94-41.94c0-4.1-0.6-8.05-1.69-11.79 C753.07,385.79,736.98,398.51,717.91,398.51z"></path> <g> <line class="st14" x1="737.39" y1="342.86" x2="737.39" y2="417.58"></line> <line class="st14" x1="699.15" y1="342.86" x2="699.15" y2="417.58"></line> </g> <circle class="st21" cx="718.27" cy="380.16" r="41.94"></circle> </g> <g> <g> <path class="st36" d="M632.87,870.88c-0.05,2.09,0.49,4.08,2.18,5.56h18.3c0,0,5.96-2.26,5.96-11.31c0-1.39-0.08-2.95-0.2-4.61 c-1.52,2.39-3.3,4.82-5.22,7.56C651.38,871.66,642.24,871.09,632.87,870.88z"></path> <path class="st37" d="M639.16,845.03c-0.64,1.25-1.21,2.16-1.65,2.63c-2.67,2.88,0.21,10.07-1.03,12.54 c-0.83,1.66-3.51,6.38-3.62,10.68c9.37,0.21,18.52,0.78,21.02-2.8c1.92-2.74,3.7-5.17,5.22-7.56c-0.3-4.21-0.9-9.07-1.41-13.55 C652.69,844.45,646.97,843.59,639.16,845.03z"></path> <path class="st33" d="M671.53,689.29c-1.7,9.21-3.08,16.49-3.59,19.4c-1.44,8.22-3.08,29.19-3.29,38.03 c-0.21,8.84-1.44,11.72-4.52,17.89c-3.08,6.17-11.92,23.03-12.34,42.56c-0.34,16.29-5.4,31.57-8.63,37.87 c7.81-1.44,13.52-0.58,18.54,1.94c-0.59-5.28-1.03-10.02-0.66-12.47c0.82-5.35,5.35-15.62,8.22-19.33 c2.88-3.7,15.83-20.97,19.74-45.43c3.91-24.47,25.29-58.39,26.32-67.64c0.13-1.15,0.29-2.24,0.49-3.26 C696.01,700.9,686.63,697.97,671.53,689.29z"></path> <path class="st33" d="M760.31,559.64c2.67-15.83,7.61-49.34,7.61-66.82s-0.82-25.7-3.29-33.92 c-2.47-8.22-13.36-35.16-14.19-37.42c-0.82-2.26,6.78-13.16,6.99-16.24c0.21-3.08,1.85-25.08,1.85-25.08 c-3.49,0.93-3.7,4.42-3.8,8.94c-4.32,1.34-4.01,6.48-4.01,11.51c0,5.04-1.64,4.42-6.99,13.67 c-5.76,11.31-0.21,27.75,4.32,50.16c4.52,22.41-2.67,34.95-5.35,50.16c-0.79,4.51-3.22,7.66-6.23,9.87 c5.89,8.27,15.59,26.38,21.75,45.7C759.37,566.14,759.82,562.56,760.31,559.64z"></path> <path class="st38" d="M761.15,650.57c-0.93-6.01-1.73-11.68-2.28-16.51c-2.18-19.11-1.62-46.01,0.1-63.87 c-6.16-19.32-15.86-37.44-21.75-45.7c-2.38,1.75-5.13,2.89-7.74,3.65c4.89,26.91-4.61,29.65-11.72,29.65 c-14.53-1.42-11.96-16.57-10.97-30.73c-2.28-0.95-4.53-2.23-6.39-4.01c-5.89,8.44-14.65,22.52-20.7,41.12 c2.23,17.3,3.22,48.49,0.78,69.9c-0.56,4.9-1.37,10.65-2.31,16.76C700.12,665.29,728.62,672.07,761.15,650.57z"></path> <path class="st33" d="M717.76,557.79c7.12,0,16.62-2.74,11.72-29.65c-4.85,1.41-9.22,1.48-9.81,1.49 c-0.71,0-6.94-0.1-12.89-2.57C705.8,541.21,703.23,556.37,717.76,557.79z"></path> <path class="st33" d="M695.9,514.61c-2.67-15.21-9.87-27.75-5.35-50.16c4.52-22.41,10.07-38.86,4.32-50.16 c-5.35-9.25-6.99-8.63-6.99-13.67c0-5.04,0.31-10.18-4.01-11.51c-0.1-4.52-0.31-8.02-3.8-8.94c0,0,1.64,22,1.85,25.08 c0.21,3.08,7.81,13.98,6.99,16.24c-0.82,2.26-11.72,29.19-14.19,37.42c-2.47,8.22-3.29,16.45-3.29,33.92s4.93,50.99,7.61,66.82 c0.23,1.37,0.45,2.89,0.66,4.52c6.04-18.59,14.81-32.68,20.7-41.12C698.21,520.96,696.53,518.22,695.9,514.61z"></path> <path class="st39" d="M768.51,693c-2.21-11.91-5.15-28.16-7.36-42.43c-32.53,21.5-61.03,14.72-82.99,0.24 c-1.98,12.77-4.54,27.1-6.63,38.47c15.1,8.68,24.48,11.61,40.27,9.55c1.34-7.05,4.22-11.14,7.87-11.5 c4.18,0.42,7.35,5.72,8.36,14.77c0.03,0.24,0.07,0.5,0.13,0.77C741.4,704.78,757.17,702.97,768.51,693z"></path> <path class="st36" d="M806.48,870.69c-4.95,0.07-11.56,0.09-16.21-0.13c-5.38-0.26-7.97-3.37-10.13-8.17 c-0.05,0.97-0.08,1.9-0.08,2.76c0,9.05,5.96,11.31,5.96,11.31h18.3C806.05,874.92,806.57,872.85,806.48,870.69z"></path> <path class="st37" d="M790.26,870.55c4.66,0.23,11.27,0.2,16.21,0.13c-0.18-4.24-2.79-8.85-3.61-10.48 c-1.23-2.47,1.64-9.66-1.03-12.54c-0.5-0.54-1.15-1.6-1.89-3.11c-5.1-1.85-10.99-2.48-18.03-0.05 c-0.6,5.75-1.52,12.55-1.79,17.87C782.29,867.18,784.89,870.29,790.26,870.55z"></path> <path class="st33" d="M799.95,844.55c-3.23-6.57-8.05-21.5-8.39-37.39c-0.41-19.53-9.25-36.39-12.33-42.56 c-3.08-6.17-4.32-9.05-4.52-17.89c-0.21-8.84-1.85-29.81-3.29-38.03c-0.44-2.51-1.53-8.26-2.91-15.69 c-11.34,9.97-27.11,11.78-40.34,9.88c1.99,10.23,22.38,43.03,26.19,66.87c3.91,24.46,16.86,41.73,19.74,45.43 c2.88,3.7,7.4,13.98,8.22,19.33c0.32,2.06,0.05,5.74-0.39,10C788.96,842.08,794.85,842.71,799.95,844.55z"></path> </g> <path class="st14" d="M680.48,634.06c10.42-2.81,18.09-17.61,21.38-41.19"></path> <path class="st14" d="M757.78,618.64c-7.13-9.32-11.51-27.96-12.61-39.47"></path> <path class="st21" d="M639.16,845.03c2.92,3.59,1.97,12.16,17.21,1.92"></path> <path class="st21" d="M641.61,860.77c2.38-2.62,3.22-9.05,3.22-9.05"></path> <path class="st21" d="M782.87,843.97c6.07,8.34,15.21,12.36,17.07,0.58"></path> <path class="st21" d="M797.05,861.72c-4.17-2.26-3.1-9.77-3.1-9.77"></path> <path class="st21" d="M743.46,514.61c-0.13,7.04,2.49,16.81,4.88,20.38"></path> <path class="st7" d="M695.21,512.12c1.19,7.15-4.05,19.06-4.05,19.06"></path> </g> <g> <g> <defs> <path id="SVGID_11_" d="M768.51,692.76c-2.21-11.91-5.15-28.16-7.36-42.43c-32.53,21.5-61.03,14.72-82.99,0.24 c-1.98,12.77-4.54,27.1-6.63,38.47c15.1,8.68,24.48,11.61,40.27,9.55c1.34-7.05,4.22-11.14,7.87-11.5 c4.18,0.42,7.35,5.72,8.36,14.77c0.03,0.24,0.07,0.5,0.13,0.77C741.4,704.55,757.17,702.73,768.51,692.76z"></path> </defs> <clipPath id="SVGID_12_"> <use xlink:href="#SVGID_11_" style="overflow:visible;"></use> </clipPath> <path class="st40" d="M721.41,687.46c12.63-0.71,14.29,11.67,15.48,14.06c1.19,2.38-8.73,1.13-8.73,1.13L721.41,687.46z"></path> </g> <path class="st7" d="M768.51,692.76c-2.21-11.91-5.15-28.16-7.36-42.43c-32.53,21.5-61.03,14.72-82.99,0.24 c-1.98,12.77-4.54,27.1-6.63,38.47c15.1,8.68,24.48,11.61,40.27,9.55c1.34-7.05,4.22-11.14,7.87-11.5 c4.18,0.42,7.35,5.72,8.36,14.77c0.03,0.24,0.07,0.5,0.13,0.77C741.4,704.55,757.17,702.73,768.51,692.76z"></path> <path class="st14" d="M707.36,682.69c5,4.29,16.44,5.36,26.09,1.43"></path> <path d="M678.16,650.58c15.62,18.78,46.11,27.83,71.84,6.86C717.84,665.06,713.53,669.44,678.16,650.58z"></path> </g> </g> <path d="M708.19,521.89l-1.4,5.16c0,0,9.26,1.99,13.55-6.77C711.94,522.61,708.19,521.89,708.19,521.89z"></path> <path class="st33" d="M668.21,761.63c1.48,3.95,7.73,4.77,10.85,1.97"></path> <path class="st33" d="M760.19,763.42c2.82,3.13,8.94,1.61,10.82-2.14"></path> <path class="st32" d="M727.59,525.07c0.76,3.6,1.52,3.41,1.42,6.92c-16.31,0.47-21.62-3.41-21.62-3.41 c0.38-1.9,0.38-1.61,2.47-1.33c2.09,0.28,16.78-3.51,16.78-3.51L727.59,525.07z"></path> <path class="st14" d="M704.36,526.21c-2.47,6.64-6.64,25.03-8.53,33.75"></path> </g> </g> <g> <defs> <polygon id="SVGID_13_" points="450.17,706.07 601.1,702.63 601.1,389.87 469.96,389.87 "></polygon> </defs> <clipPath id="SVGID_14_"> <use xlink:href="#SVGID_13_" style="overflow:visible;"></use> </clipPath> <g class="st41"> <polygon class="st17" points="506.19,672.42 423.85,672.57 486.48,448.56 562.97,469.95 "></polygon> <g> <g> <path class="st18" d="M499.06,471.71c0.88-3.14-0.97-6.43-4.12-7.31s-6.43,0.97-7.31,4.12l-7.35,26.29l11.43,3.2L499.06,471.71z "></path> </g> <g> <path class="st18" d="M516.59,476.6c0.88-3.14-0.97-6.43-4.12-7.31c-3.14-0.88-6.43,0.97-7.31,4.12l-7.35,26.29l11.43,3.2 L516.59,476.6z"></path> </g> <g> <path class="st18" d="M534.11,481.5c0.88-3.14-0.97-6.43-4.12-7.31c-3.14-0.88-6.43,0.97-7.31,4.12l-7.35,26.29l11.43,3.2 L534.11,481.5z"></path> </g> <g> <path class="st18" d="M551.64,486.4c0.88-3.14-0.97-6.43-4.12-7.31c-3.14-0.88-6.43,0.97-7.31,4.12l-7.35,26.29l11.43,3.2 L551.64,486.4z"></path> </g> </g> <line class="st19" x1="552.03" y1="514.85" x2="472.54" y2="492.63"></line> <g> <g> <path class="st18" d="M485.53,520.1c0.88-3.14-0.97-6.43-4.12-7.31c-3.14-0.88-6.43,0.97-7.31,4.12l-7.35,26.29l11.43,3.2 L485.53,520.1z"></path> </g> <g> <path class="st18" d="M503.06,525c0.88-3.14-0.97-6.43-4.12-7.31c-3.14-0.88-6.43,0.97-7.31,4.12l-7.35,26.29l11.43,3.2 L503.06,525z"></path> </g> <g> <path class="st18" d="M520.58,529.9c0.88-3.14-0.97-6.43-4.12-7.31c-3.14-0.88-6.43,0.97-7.31,4.12l-7.35,26.29l11.43,3.2 L520.58,529.9z"></path> </g> <g> <path class="st18" d="M538.11,534.8c0.88-3.14-0.97-6.43-4.12-7.31c-3.14-0.88-6.43,0.97-7.31,4.12l-7.35,26.29l11.43,3.2 L538.11,534.8z"></path> </g> </g> <line class="st19" x1="538.5" y1="563.25" x2="459.01" y2="541.03"></line> <g> <g> <path class="st20" d="M472.01,568.49c0.88-3.14-0.97-6.43-4.12-7.31s-6.43,0.97-7.31,4.12l-7.35,26.29l11.43,3.2L472.01,568.49z "></path> </g> <g> <path class="st20" d="M489.53,573.39c0.88-3.14-0.97-6.43-4.12-7.31c-3.14-0.88-6.43,0.97-7.31,4.12l-7.35,26.29l11.43,3.2 L489.53,573.39z"></path> </g> <g> <path class="st20" d="M507.06,578.29c0.88-3.14-0.97-6.43-4.12-7.31s-6.43,0.97-7.31,4.12l-7.35,26.29l11.43,3.2L507.06,578.29z "></path> </g> <g> <path class="st20" d="M524.58,583.19c0.88-3.14-0.97-6.43-4.12-7.31c-3.14-0.88-6.43,0.97-7.31,4.12l-7.35,26.29l11.43,3.2 L524.58,583.19z"></path> </g> </g> <line class="st21" x1="524.97" y1="611.64" x2="445.49" y2="589.42"></line> <g> <g> <path class="st20" d="M458.48,616.88c0.88-3.14-0.97-6.43-4.12-7.31s-6.43,0.97-7.31,4.12l-7.35,26.29l11.43,3.2L458.48,616.88z "></path> </g> <g> <path class="st20" d="M476,621.78c0.88-3.14-0.97-6.43-4.12-7.31c-3.14-0.88-6.43,0.97-7.31,4.12l-7.35,26.29l11.43,3.2 L476,621.78z"></path> </g> <g> <path class="st20" d="M493.53,626.68c0.88-3.14-0.97-6.43-4.12-7.31s-6.43,0.97-7.31,4.12l-7.35,26.29l11.43,3.2L493.53,626.68z "></path> </g> <g> <path class="st20" d="M511.05,631.58c0.88-3.14-0.97-6.43-4.12-7.31c-3.14-0.88-6.43,0.97-7.31,4.12l-7.35,26.29l11.43,3.2 L511.05,631.58z"></path> </g> </g> <line class="st21" x1="509.65" y1="659.53" x2="433.76" y2="638.31"></line> <rect x="496.48" y="420.16" transform="matrix(0.9631 0.2692 -0.2692 0.9631 138.0334 -126.4775)" class="st17" width="67.27" height="39.64"></rect> <line class="st19" x1="500.66" y1="423.72" x2="564.84" y2="441.66"></line> <g> <g> <path class="st18" d="M516.59,438.69c0.9-3.22-1-6.59-4.22-7.49c-3.22-0.9-6.59,1-7.49,4.22l-4.69,16.78l11.71,3.27 L516.59,438.69z"></path> </g> <g> <path class="st22" d="M535.32,443.93c0.9-3.22-1-6.59-4.22-7.49c-3.22-0.9-6.59,1-7.49,4.22l-4.69,16.78l11.71,3.27 L535.32,443.93z"></path> </g> <g> <path class="st18" d="M554.05,449.16c0.9-3.22-1-6.59-4.22-7.49c-3.22-0.9-6.59,1-7.49,4.22l-4.69,16.78l11.71,3.27 L554.05,449.16z"></path> </g> </g> <line class="st21" x1="429.13" y1="643.75" x2="510.78" y2="666.58"></line> <g> <line class="st21" x1="447.13" y1="648.78" x2="440.38" y2="672.42"></line> <line class="st21" x1="462.35" y1="653.04" x2="457.03" y2="672.42"></line> <line class="st21" x1="477.57" y1="657.29" x2="473.16" y2="672.42"></line> <line class="st21" x1="492.79" y1="661.55" x2="489.54" y2="672.42"></line> </g> <line class="st0" x1="524.36" y1="474.76" x2="524.36" y2="474.24"></line> </g> </g> <g> <path class="st0" d="M455.43,496.48c2.1-20.31-3.2-39.36-30.83-43.04v199.09c6.98-7.15,12.27-17.08,14.7-30.46L455.43,496.48z"></path> <path class="st0" d="M461.21,452.09c1.22,1.35,2.35,2.78,3.4,4.26c1.53-11.1,10.31-19.69,21.15-21.26v-7.34H424.6v7.58 C440.35,436.98,452.64,442.59,461.21,452.09z"></path> <path class="st0" d="M482.41,458.87l-26.13,201.38c-0.54,4.16,2.7,7.85,6.9,7.85h22.56V453.79 C483.97,454.85,482.7,456.69,482.41,458.87z"></path> <path class="st0" d="M463.19,686.1c-7.18,0-14.01-3.09-18.74-8.48c-3.36-3.82-5.43-8.55-6.03-13.51c-2.92,3.13-6.12,5.97-9.61,8.48 c-1.36,0.98-2.77,1.89-4.21,2.77v39.19h61.16V686.1H463.19z"></path> </g> <path d="M462.57,449.78c-0.29-0.35-0.58-0.7-0.88-1.04c-10.75-11.92-27.03-17.96-48.41-17.96h-8.66v20h8.66 c36.66,0,43.49,21.07,41.15,43.69L438.3,620.07c-4.34,23.88-17.77,36.8-33.68,42.46v20.9c8.96-2.31,17.18-6.07,24.34-11.22 c2.56-1.83,4.95-3.85,7.21-6.01c1.07,3.93,3.01,7.62,5.76,10.74c5.12,5.82,12.5,9.16,20.25,9.16h55.54v-20h-55.54 c-4.2,0-7.44-3.69-6.9-7.85l26.13-201.38L462.57,449.78z"></path> <g> <path class="st42" d="M355.13,661.01c-1.44,1.58-3.64,6.32-0.05,6.32c3.59,0,7.5,0,7.5,0"></path> <path class="st42" d="M319.58,661.09c1.44,1.58,3.64,6.32,0.05,6.32s-7.5,0-7.5,0"></path> <path class="st43" d="M365.44,622.1c-1.18-5.04-2.44-31.06-2.44-31.06l-25.72,2.73l-25.72-2.73c0,0-1.26,26.02-2.44,31.06 c-0.26,1.11-0.17,2.95,0.11,5.2c3.07-8.43,13.74-5.15,13.74,0.08c0,1.48,0,1.73,0,9.84c0.08-0.23,0.13-0.46,0.16-0.68 c4.02-3.54,4.5-7.88,5.95-14.79c1.45-6.91,6.27-8.04,8.2-8.52c1.93,0.48,6.75,1.61,8.2,8.52c1.45,6.91,1.93,11.25,5.95,14.79 c0.03,0.22,0.08,0.45,0.16,0.68c0-8.11,0-8.37,0-9.84c0-5.22,10.66-8.5,13.74-0.08C365.62,625.05,365.7,623.22,365.44,622.1z"></path> <g> <path class="st17" d="M438.41,641.93h-23.63c-1.52,0-2.77,1.22-2.81,2.73h29.25C441.18,643.16,439.93,641.93,438.41,641.93z"></path> <path class="st22" d="M411.97,644.67c0,0.03,0,0.05,0,0.08l0,0c0,1.55,1.27,2.81,2.81,2.81h23.63c1.55,0,2.81-1.27,2.81-2.81l0,0 c0-0.03,0-0.05,0-0.08H411.97z"></path> </g> <path class="st22" d="M408.43,622.96c-0.58,0-2.79,0-3.38,0c-4,0-7.24,9.86-7.24,22.03c0,12.16,3.24,22.03,7.24,22.03 c0.58,0,2.79,0,3.38,0c4,0,7.24-9.86,7.24-22.03C415.66,632.82,412.42,622.96,408.43,622.96z"></path> <ellipse class="st44" cx="402.96" cy="644.99" rx="7.23" ry="22.03"></ellipse> <path class="st22" d="M403.11,638.59c-0.17,0-0.81,0-0.98,0c-1.16,0-2.1,2.86-2.1,6.39c0,3.53,0.94,6.39,2.1,6.39 c0.17,0,0.81,0,0.98,0c1.16,0,2.1-2.86,2.1-6.39C405.21,641.46,404.27,638.59,403.11,638.59z"></path> <ellipse class="st17" cx="401.04" cy="644.99" rx="2.1" ry="6.39"></ellipse> <g> <path class="st17" d="M232.13,641.93h23.63c1.52,0,2.77,1.22,2.81,2.73h-29.25C229.37,643.16,230.61,641.93,232.13,641.93z"></path> <path class="st22" d="M258.58,644.67c0,0.03,0,0.05,0,0.08l0,0c0,1.55-1.27,2.81-2.81,2.81h-23.63c-1.55,0-2.81-1.27-2.81-2.81 l0,0c0-0.03,0-0.05,0-0.08H258.58z"></path> </g> <path class="st22" d="M262.12,622.96c0.58,0,2.79,0,3.38,0c4,0,7.24,9.86,7.24,22.03c0,12.16-3.24,22.03-7.24,22.03 c-0.58,0-2.79,0-3.38,0c-4,0-7.24-9.86-7.24-22.03C254.88,632.82,258.12,622.96,262.12,622.96z"></path> <ellipse class="st44" cx="267.59" cy="644.99" rx="7.23" ry="22.03"></ellipse> <path class="st19" d="M267.59,630.79c-2.58,0-4.66,6.36-4.66,14.19c0,7.84,2.09,14.19,4.66,14.19"></path> <path class="st19" d="M402.8,630.79c2.58,0,4.66,6.36,4.66,14.19c0,7.84-2.09,14.19-4.66,14.19"></path> <path class="st22" d="M267.44,638.59c0.17,0,0.81,0,0.98,0c1.16,0,2.1,2.86,2.1,6.39c0,3.53-0.94,6.39-2.1,6.39 c-0.17,0-0.81,0-0.98,0c-1.16,0-2.1-2.86-2.1-6.39C265.34,641.46,266.28,638.59,267.44,638.59z"></path> <ellipse class="st17" cx="269.51" cy="644.99" rx="2.1" ry="6.39"></ellipse> <path class="st45" d="M309.24,627.3c0.95,7.4,4.13,19.31,4.93,25.08h5.32c0.37-9.98,2.8-13.01,3.49-15.16c0-8.11,0-8.37,0-9.84 C322.97,622.16,312.31,618.88,309.24,627.3z"></path> <path class="st46" d="M316.82,656.47c-0.94,1.39-2.9,4.2-3.97,5.16c-1.29,1.15-0.79,1.14-5.7,0.9c-1.02,0.8-1.8,1.47-2.01,1.99 c0,0-1.45,3.05,1.77,3.05c4.19,0,7.23-0.32,7.56-1.61c0.32-1.29,0.96-2.57,2.89-3.22c1.93-0.64,2.09-2.25,2.09-2.25s0-1.57,0-3.52 C318.37,657.14,317.54,656.87,316.82,656.47z"></path> <path class="st17" d="M312.85,661.63c1.07-0.95,3.03-3.77,3.97-5.16c-0.96-0.52-1.76-1.27-2.75-1.55c-0.93,3.17-4.57,5.75-6.93,7.6 C312.06,662.77,311.55,662.78,312.85,661.63z"></path> <path class="st17" d="M314.29,653.43c0,0.51-0.08,1.01-0.22,1.49c0.99,0.28,1.79,1.02,2.75,1.55c0.05,0.01,0.05,0.01,0,0 c0.73,0.4,1.55,0.67,2.62,0.51c0-0.62,0-1.28,0-1.95c0-0.94,0.02-1.82,0.05-2.65h-5.32C314.22,652.76,314.26,653.11,314.29,653.43z "></path> <path class="st45" d="M365.33,627.3c-0.95,7.4-4.13,19.31-4.93,25.08h-5.32c-0.37-9.98-2.8-13.01-3.49-15.16c0-8.11,0-8.37,0-9.84 C351.59,622.16,362.25,618.88,365.33,627.3z"></path> <path class="st46" d="M357.75,656.47c0.94,1.39,2.9,4.2,3.97,5.16c1.29,1.15,0.79,1.14,5.7,0.9c1.02,0.8,1.8,1.47,2.01,1.99 c0,0,1.45,3.05-1.77,3.05c-4.19,0-7.23-0.32-7.56-1.61c-0.32-1.29-0.96-2.57-2.89-3.22c-1.93-0.64-2.09-2.25-2.09-2.25 s0-1.57,0-3.52C356.2,657.14,357.02,656.87,357.75,656.47z"></path> <path class="st17" d="M361.72,661.63c-1.07-0.95-3.03-3.77-3.97-5.16c0.96-0.52,1.76-1.27,2.75-1.55c0.93,3.17,4.57,5.75,6.93,7.6 C362.51,662.77,363.01,662.78,361.72,661.63z"></path> <path class="st17" d="M360.27,653.43c0,0.51,0.08,1.01,0.22,1.49c-0.99,0.28-1.79,1.02-2.75,1.55c-0.05,0.01-0.05,0.01,0,0 c-0.73,0.4-1.55,0.67-2.62,0.51c0-0.62,0-1.28,0-1.95c0-0.94-0.02-1.82-0.05-2.65h5.32C360.34,652.76,360.3,653.11,360.27,653.43z"></path> <rect x="269.03" y="643.06" class="st17" width="131.68" height="4.02"></rect> <path d="M320.48,622.96c4.02,1.77,4.67,5.49,4.5,7.88c-0.16,2.25-0.47,4.3-0.47,4.3l-1.38,1.41l-0.24-9.24 C322.89,627.3,322.41,624.73,320.48,622.96z"></path> <path d="M353.72,623.65c-2.77,1.64-3.9,3.25-3.73,5.66c0.16,2.41-0.51,4.66-0.51,4.66l1.95,2.57l0.03-5.49 C351.46,631.05,350.7,625.22,353.72,623.65z"></path> <path class="st47" d="M325.87,606.8c5.95,2.73,11.42,6.43,11.42,6.43c6.91-6.75,14.31-9,14.31-9"></path> <path class="st47" d="M345.64,622.08c2.09-7.72,5.47-10.45,9.16-10.29"></path> <path class="st47" d="M328.15,626.3c-1.15-11.94-8.71-14.03-11.28-13.55"></path> <rect x="269.12" y="645" width="131.66" height="2.05"></rect> <path class="st48" d="M312.04,604.23c1.29,2.09,1.65,4.49,0.75,7.55"></path> <path class="st48" d="M361.52,604.23c-1.29,2.09-1.65,4.49-0.75,7.55"></path> <path class="st19" d="M375.11,634.56c0,0,2.34,1.7,2.13,4.05"></path> <path class="st19" d="M376.81,633.7c0,0,2.34,1.7,2.13,4.05"></path> <path class="st19" d="M295.47,633.93c0,0-2.34,1.7-2.13,4.05"></path> <path class="st19" d="M293.76,633.07c0,0-2.34,1.7-2.13,4.05"></path> <g> <path class="st49" d="M300.3,635.9c-0.03,0.16-0.06,0.32-0.09,0.48h5.9c-0.05-0.73-0.07-1.55-0.03-2.41h-5.76 C300.3,635.17,300.3,635.9,300.3,635.9z"></path> <path class="st45" d="M298.38,641.37c-0.8,2.25-2.09,4.18-0.16,6.11c1.45,1.45,2.73,0.16,2.73,0.16c1.13,0.8,2.41,0.8,3.22,0 c0.96,0.96,3.22,1.13,3.54-2.09c0.64-2.25,0.8-2.41,0.8-2.41c0-2.09-0.96-2.89-1.93-4.18c-0.21-0.48-0.38-1.41-0.47-2.57h-5.9 C299.89,637.95,299.4,639.33,298.38,641.37z"></path> <path class="st50" d="M370.69,593.91c0-0.21-0.01-0.41-0.01-0.62c-0.38-21.81-12.46-28.82-24.49-30.81v5.73 c0,5.47-4.47,9.94-9.94,9.94c-5.47,0-9.94-4.47-9.94-9.94v-5.55c-11.53,2.2-22.78,9.28-23.41,29.85 c3.31,4.85,10.03,4.14,14.13,3.69c0.08-0.54,0.13-1.03,0.16-1.48c5.3,5.46,12.85,8.51,19.59,8.2c6.75,0.31,14.29-2.74,19.59-8.2 c0.06,1.07,0.29,2.44,0.64,4.01C361.43,599.21,367.9,599.45,370.69,593.91z"></path> <path class="st45" d="M375.18,641.37c-1.13-2.25-1.61-3.7-1.93-5.47c0,0,0-19.94-0.64-22.51c-0.63-2.51-1.72-10.56-1.92-19.48 c-2.79,5.53-9.27,5.29-13.68,4.84c2.25,10.24,9.58,29.23,10.13,32.16c0.64,3.38,0.32,6.91-0.16,8.04 c-0.96,1.29-1.93,2.09-1.93,4.18c0,0,0.16,0.16,0.8,2.41c0.32,3.22,2.57,3.05,3.54,2.09c0.8,0.8,2.09,0.8,3.22,0 c0,0,1.29,1.29,2.73-0.16C377.27,645.55,375.99,643.62,375.18,641.37z"></path> <path class="st45" d="M302.9,592.53c-0.01,0.25-0.02,0.51-0.02,0.76c-0.16,9.16-1.29,17.52-1.93,20.1 c-0.52,2.08-0.62,15.51-0.64,20.58h5.76c0.04-0.98,0.15-2.03,0.34-3.05c0.61-3.19,9.25-25.47,10.61-34.7 C312.93,596.67,306.21,597.39,302.9,592.53z"></path> <path class="st45" d="M336.25,578.17c5.47,0,9.94-4.47,9.94-9.94v-5.73c-3.21-0.53-6.41-0.7-9.39-0.71v0c-0.01,0-0.01,0-0.02,0 c-0.01,0-0.01,0-0.02,0v0c-3.31,0-6.89,0.22-10.45,0.9v5.55C326.31,573.69,330.78,578.17,336.25,578.17z"></path> </g> <path d="M356.37,581.56c-2.42,1.45-3.97,9.78-0.98,14.14l0.98-0.96C356.37,594.74,355.64,583.17,356.37,581.56z"></path> <path d="M317.69,582.69c2.05,0.88,3.67,8.65,0.68,13.02l-0.98-0.96C317.39,594.74,318.42,584.3,317.69,582.69z"></path> <path class="st45" d="M316.89,596.97c0.78-3.83,1.1-10.1,0.62-13.96"></path> <path class="st45" d="M356.03,583.01c-0.38,3.08-0.26,7.69,0.2,11.38c0.12,0.93,0.26,1.81,0.41,2.58"></path> <g> <ellipse class="st45" cx="327.16" cy="558.87" rx="2.48" ry="2.81"></ellipse> <ellipse class="st45" cx="345.35" cy="558.87" rx="2.48" ry="2.81"></ellipse> <path class="st45" d="M345.23,554.41v-3.97c0,0-1.24-4.79-9.03-4.79s-9.03,4.79-9.03,4.79v3.97c0,0-1.06,20,9.03,20 S345.23,554.41,345.23,554.41z"></path> <path d="M344.41,543.67c-3.94-3.14-7.81-3.01-7.81-3.01s-4.41-0.54-8.36,2.6c-3.94,3.14-3.29,10.14-1.24,16.11 c0,0-0.24-10.83,2.45-10.5s4.73,3.14,6.78,3.14s4.1-2.81,6.78-3.14c2.68-0.33,2.45,10.5,2.45,10.5 C347.42,554.22,348.35,546.81,344.41,543.67z"></path> <g> <path class="st21" d="M329.62,556.19c1.69-0.68,4.74,0.68,4.74,0.68"></path> <path class="st21" d="M342.67,556.19c-1.69-0.68-4.74,0.68-4.74,0.68"></path> <path class="st21" d="M334.36,564.32c1.36,0.51,3.56,0,3.56,0"></path> <line class="st21" x1="334.36" y1="568.39" x2="337.92" y2="568.39"></line> <path class="st21" d="M330.81,558.56c1.52,0.51,2.88,0,2.88,0"></path> <path class="st21" d="M338.43,558.56c1.52,0.51,2.88,0,2.88,0"></path> </g> </g> <path class="st47" d="M345.95,562.41c4.36,3.88,4.85,14.55,2.42,21.82"></path> <path class="st47" d="M326.55,562.41c-4.36,3.88-4.85,14.55-2.42,21.82"></path> <path class="st47" d="M324.61,589.08c10.27,7.77,23.64,1.73,23.76,0.97"></path> <path class="st19" d="M358.55,578.89c-1.94,1.94-2.6,4.47-2.75,8.3"></path> <path class="st19" d="M315.07,578.89c1.94,1.94,2.6,4.47,2.75,8.3"></path> </g> <g> <path class="st5" d="M330.64,465.82c3.1,3.07,7.26,4.79,11.68,4.79h0.02l0.06,0c0.13,0,0.28,0,0.44-0.01 c20.58-0.63,44.17-12.13,50.91-15.64l0.17-0.09c6.49-3.25,7.34-8.31,7.27-11.04c-0.09-3.23-1.46-5.98-2.78-8.65 c-2.15-4.32-5.75-11.55-13.69-11.55c-1.92,0-3.83,0.47-5.69,1.4c-0.01,0.01-0.16,0.08-0.42,0.22c-1.65,0.92-6.58-1.12-13.91,1.74 c1.27-5.39,1.57-5.86,3.44-12.14c1.06-0.22,2.07-0.42,3.05-0.61l0.03-0.01l0.03-0.01c2.83-0.56,8.98-1.41,13.04-1.96 c0.92-0.13,1.75-0.24,2.43-0.33l0.15-0.02l0.03,0l0.03,0l0.05-0.01c4.38-0.64,6.81-2.85,8.07-4.59c2.95-4.07,2.16-8.7,1.58-12.08 c-0.09-0.54-0.19-1.11-0.28-1.69c-0.09-0.58-0.15-1.15-0.22-1.69c-0.27-2.24-0.55-4.57-1.64-6.84c-1.91-3.99-5.61-6.27-10.15-6.27 c-0.7,0-1.44,0.06-2.19,0.17c-0.53,0.08-1.17,0.17-1.89,0.27c0.76-1.99,1.38-3.6,1.83-4.75c10.1-1.96,22.93-3.16,29.59-3.59 c4.42-0.28,7.06-2.3,8.5-3.95c3.44-3.94,3.1-8.8,2.82-12.7c-0.02-0.34-0.05-0.69-0.07-1.04c-0.02-0.36-0.04-0.71-0.06-1.05 c-0.15-2.57-0.3-5.24-1.44-7.83c-1.91-4.29-5.85-6.75-10.82-6.75c-0.33,0-0.68,0.01-1.02,0.03l-0.12,0.01 c-3.46,0.18-15.55,0.9-26.04,2.65c-7.31,1.22-14.02,2.71-19.95,4.43c-4.03,0.15-7.94,1.5-11.19,3.87 c-2.51,1.02-8.48,3.51-11.36,5.17c-2.4,1.38-4.18,3.3-5.26,5.55c-2.56-2.43-5.92-3.84-9.01-5.14c-0.6-0.25-1.2-0.5-1.81-0.77 c-0.61-0.27-1.21-0.54-1.78-0.8c-3.12-1.41-6.35-2.87-9.93-2.87c-3.04,0-8.63,1.11-11.86,8.54c-1.17,2.7-2.9,6.75-4.85,11.51 c-1.51-3.48-4.26-5.78-7.34-7.57c4.12-2.18,6.82-6.41,7.67-12.32c0.06-0.43,0.13-0.85,0.19-1.26c0.52-3.32,1.24-7.87-1.78-11.83 c-1.29-1.7-3.75-3.82-8.11-4.31c-7.01-0.78-14.22-1.18-21.42-1.18c-30.03,0-55.83,6.81-72.18,12.53c-10,3.5-17.41,6.89-21.85,9.11 c-9.97,4.99-10.87,6.84-11.66,8.48c-2.71,5.59-4.66,10.26-3.07,15.23c1.73,5.41,6.73,7.88,11.13,10.06 c1.38,0.68,2.88,1.03,4.44,1.03c3.49,0,6.16-1.73,7.75-2.77c0.11-0.07,8.94-5.66,23.61-11.19c-0.11,0.27-0.23,0.55-0.34,0.82 c-8.36,19.99-19.16,53.7-24.42,88.36c-0.96,6.32,1.55,11.66,6.89,14.65c3.54,1.99,7.87,2.64,11.35,3.17c1,0.15,2.03,0.23,3.04,0.23 l0.09,0c15.42-0.07,19.07-8.91,19.87-14.17c2.35-15.47,5.62-29.66,9.21-42.23c1.18,2.38,2.99,4.97,5.86,6.46 c-1.6,8.93-2.61,17.5-2.78,21.56c-0.27,6.43,2.87,11.47,8.62,13.83c3.68,1.51,7.89,1.69,11.61,1.85c0.28,0.01,0.57,0.02,0.86,0.02 l0.1,0l0.7,0c3.72-0.01,7.24-0.02,10.57-1.46l8.59,3.27c-0.54,6.32,2.14,11.43,7.35,14.01c3.43,1.7,7.24,2.02,11.26,2.37 c0.58,0.05,1.16,0.07,1.72,0.07l0.09,0l0.39,0c0.4,0,0.8,0,1.18,0c0.41,0,0.81,0,1.2,0c3.15,0,6.48-0.13,9.64-1.63 c2.5-1.19,6.78-4.26,7.39-11.41L330.64,465.82z"></path> <g> <g> <path d="M321.67,360.63c-6.17-2.68-10.36-5.45-13.04,0.72c-5.24,12.06-12.65,30.34-16.28,43.58c-3.3-0.81-6.61-1.39-9.92-1.71 c-1.89-0.17-3.78-0.29-5.66-0.35c3.19-8.61,9.94-20.7,12.04-25.32c2.79-6.12-3.48-8.6-9.6-11.39c-6.12-2.79-9.79-4.83-12.57,1.3 c-5.7,12.53-13.48,28.36-16.6,38.04c-1.74,0.38-3.48,0.77-5.21,1.23c-1.21,0.31-2.42,0.65-3.64,1.01 c-0.6,0.17-1.22,0.37-1.83,0.56l-0.94,0.3l-1.02,0.35c-4.1,1.4-3.32,4.84-1.95,8.95c1.38,4.13,2.86,7.37,6.99,5.99l0.31-0.1 l0.64-0.21l0.74-0.24c0.34-0.1,0.67-0.21,1.01-0.31c-2.57,11.04-4.34,24.56-4.57,29.85c-0.29,6.72,5.85,7.05,12.57,7.34 c0.19,0.01,0.39,0.01,0.58,0.01c6.47-0.03,10.92,0.21,11.19-6.31c0.4-9.36,3.6-25.21,6.56-35.21c3.15-0.07,6.28,0.06,9.34,0.33 c2.65,0.26,5.21,0.74,7.71,1.36c-3.16,14.39-5.62,34.81-6.94,50.32c-0.57,6.71,4.61,7.16,11.32,7.73 c0.37,0.03,0.74,0.05,1.1,0.04c6.24-0.03,11.33,0.63,11.86-5.71c2.82-33.22,13.39-74.76,25.1-101.7 C333.65,364.89,327.84,363.31,321.67,360.63z"></path> </g> <g> <path d="M414.95,353.64c-0.31-4.78-0.1-8.43-4.89-8.12c-0.38,0.02-13.83,0.64-25.31,2.56c-7.52,1.26-14.22,2.77-20.1,4.53 c-3.05-0.11-6.02,0.93-8.32,2.88c-3.01,1.2-9.02,3.73-11.4,5.1c-4.15,2.39-2.27,6.46,0.12,10.61c0.66,1.15,1.56,2.08,2.58,2.79 c-2.23,6.08-4.92,13.75-7.62,22.17c-1.11,0.34-2.21,0.67-3.32,1.03l-2.93,0.97c-0.99,0.33-1.93,0.66-3.02,1.05 c-4.35,1.57-3.44,4.22-1.94,8.62c1.27,3.74,1.67,8.15,5.44,7.87c-2.82,10.53-5.16,21.25-6.3,30.85 c-0.66,5.58,2.56,10.71,7.54,12.72c1.6,2.05,4.09,3.36,6.87,3.35c0.08,0,0.15,0,0.23,0c21.28-0.65,46.78-14.41,47.73-14.88 c4.29-2.14,3.06-4.68,0.92-8.98c-2.13-4.29-4.36-8.7-8.66-6.56c-0.16,0.08-15.7,8.93-29.65,11.73 c1.84-11.31,5.27-24.11,8.9-35.88c2.61-0.6,5.23-1.16,7.85-1.66c3.74-0.74,12.19-1.85,15.92-2.37l0.16-0.02l0.05-0.01 c4.74-0.69,3.31-4.55,2.62-9.29c-0.69-4.74-0.39-8.58-5.13-7.88c-3.51,0.51-11.73,1.62-15.19,2.29 c4.06-11.52,7.28-19.51,7.38-19.74c0.25-0.6,0.42-1.22,0.57-1.83c12.06-2.88,29.24-4.31,35.11-4.69 C415.95,362.52,415.26,358.42,414.95,353.64z"></path> </g> <g> <path d="M171.56,379.44c1.33,0.66,2.97-0.42,4.3-1.29c0.27-0.18,16.79-10.72,42.76-17.6c-2.29,4.6-4.96,10.31-7.77,17.04 c-7.34,17.55-18.52,51.06-23.9,86.47c-1.01,6.65,4.87,7.7,11.53,8.71c0.64,0.1,1.27,0.14,1.9,0.14 c5.9-0.03,11.08-1.35,11.99-7.37c9.49-62.54,34.03-105.18,34.28-105.57c0.92-1.46,1.49-3.05,1.73-4.65 c9.92-0.86,20.54-0.88,31.66,0.35c4.38,0.49,7.87-0.52,8.8-7.04c0.62-4.36,1.71-7.83-2.66-8.31 c-64.64-7.19-117.98,22.32-119.03,24.49C162.57,374.24,163.19,375.3,171.56,379.44z"></path> </g> </g> </g> <g> <path class="st51" d="M1010.33,669.33v0.02c-7.99,0.19-14.41,6.71-14.41,14.74s6.42,14.56,14.41,14.74v0.02h71.35v-29.52H1010.33z"></path> <circle class="st52" cx="1081.89" cy="684.09" r="14.76"></circle> <circle class="st53" cx="1081.89" cy="684.09" r="9"></circle> <g> <rect x="1044.78" y="633.68" class="st22" width="11.09" height="4.93"></rect> <path class="st54" d="M1058.54,638.61h-2.67h-11.09h-2.67c-2.26,0-4.11,1.85-4.11,4.11v56.29h24.65v-56.29 C1062.65,640.46,1060.8,638.61,1058.54,638.61z"></path> <polygon class="st22" points="1059.98,633.68 1059.98,629.98 1040.67,629.98 1040.67,633.68 1044.78,633.68 1055.87,633.68 "></polygon> </g> <line class="st47" x1="1038.85" y1="691.17" x2="1062.47" y2="691.17"></line> <rect x="1031.41" y="669.13" width="6.07" height="29.42"></rect> </g> <path d="M772,666.1h-88.38c-4.2,0-7.44-3.68-6.9-7.85l0.03-0.25H660v14.13c0.94,1.71,2.06,3.32,3.37,4.81 c5.12,5.82,12.49,9.15,20.24,9.15H772V666.1z"></path> </svg> 