<?xml version="1.0" encoding="utf-8"?>
<!-- Generator: Adobe Illustrator 24.2.1, SVG Export Plug-In . SVG Version: 6.00 Build 0)  -->
<svg version="1.1" id="Layer_1" xmlns="http://www.w3.org/2000/svg" xmlns:xlink="http://www.w3.org/1999/xlink" x="0px" y="0px"
	 viewBox="0 0 346 302" style="enable-background:new 0 0 346 302;" xml:space="preserve">
<style type="text/css">
	.st0{clip-path:url(#SVGID_2_);fill:#333333;stroke:#333333;stroke-miterlimit:10;}
	.st1{clip-path:url(#SVGID_4_);fill:#333333;stroke:#333333;stroke-width:2;stroke-miterlimit:10;}
	.st2{fill:none;}
</style>
<g>
	<defs>
		<polygon id="SVGID_1_" points="184.8,92.5 173,164.1 161.2,92.5 45.1,17.2 45.1,203.4 128.9,281.7 120.4,157.9 173,242.5 
			225.6,157.9 217.1,281.7 300.9,203.4 300.9,17.2 		"/>
	</defs>
	<use xlink:href="#SVGID_1_"  style="overflow:visible;fill:#FFFFFF;"/>
	<clipPath id="SVGID_2_">
		<use xlink:href="#SVGID_1_"  style="overflow:visible;"/>
	</clipPath>
	<rect x="45.1" y="17.2" class="st0" width="255.8" height="264.5"/>
	<use xlink:href="#SVGID_1_"  style="overflow:visible;fill:none;stroke:#333333;stroke-miterlimit:10;"/>
</g>
<g>
	<defs>
		<polygon id="SVGID_3_" points="198.8,102.1 173,197.7 147.2,102.1 17,28.8 45.1,203.4 128.9,281.7 120.4,157.9 173,242.5 
			225.6,157.9 217.1,281.7 300.9,203.4 329,28.8 		"/>
	</defs>
	<use xlink:href="#SVGID_3_"  style="overflow:visible;fill:#A8A8A8;"/>
	<clipPath id="SVGID_4_">
		<use xlink:href="#SVGID_3_"  style="overflow:visible;"/>
	</clipPath>
	<rect x="17" y="28.8" class="st1" width="311.9" height="252.9"/>
	<use xlink:href="#SVGID_3_"  style="overflow:visible;fill:none;stroke:#000000;stroke-width:2;stroke-miterlimit:10;"/>
</g>
<g>
	<defs>
		<rect id="SVGID_5_" width="346" height="302"/>
	</defs>
	<clipPath id="SVGID_6_">
		<use xlink:href="#SVGID_5_"  style="overflow:visible;"/>
	</clipPath>
</g>
<rect class="st2" width="346" height="302"/>
</svg>
