<svg xmlns="http://www.w3.org/2000/svg" viewBox="0 0 79.26 85.93"><defs><style>.cls-1{fill:#3d84b8;}</style></defs><title>calendar_angle</title><g id="Layer_2" data-name="Layer 2"><g id="Layer_1-2" data-name="Layer 1"><path class="cls-1" d="M48.7,8.18,49.9,12a5.43,5.43,0,1,1-7.41,2.33l-1.19-3.8-23,7.22,1.19,3.8a5.43,5.43,0,1,1-7.4,2.33l-1.2-3.8L0,23.5,19.64,85.93,79.26,67.18,59.63,4.74ZM72.89,63.67l-50,15.74L9.6,37.27l50-15.74Z"/><rect class="cls-1" x="52.14" y="29.97" width="6.25" height="6.49" transform="translate(-7.42 18.11) rotate(-17.46)"/><rect class="cls-1" x="43.42" y="32.71" width="6.25" height="6.49" transform="translate(-8.64 15.62) rotate(-17.46)"/><rect class="cls-1" x="34.71" y="35.45" width="6.25" height="6.49" transform="translate(-9.87 13.13) rotate(-17.46)"/><rect class="cls-1" x="54.85" y="38.59" width="6.25" height="6.49" transform="translate(-9.88 19.32) rotate(-17.46)"/><rect class="cls-1" x="46.14" y="41.33" width="6.25" height="6.49" transform="translate(-11.1 16.83) rotate(-17.46)"/><rect class="cls-1" x="37.42" y="44.08" width="6.25" height="6.49" transform="translate(-12.33 14.34) rotate(-17.46)"/><rect class="cls-1" x="28.7" y="46.82" width="6.25" height="6.49" transform="translate(-13.55 11.85) rotate(-17.46)"/><rect class="cls-1" x="19.98" y="49.56" width="6.25" height="6.49" transform="translate(-14.78 9.36) rotate(-17.46)"/><rect class="cls-1" x="57.57" y="47.22" width="6.25" height="6.49" transform="translate(-12.34 20.53) rotate(-17.46)"/><rect class="cls-1" x="48.85" y="49.96" width="6.25" height="6.49" transform="translate(-13.57 18.04) rotate(-17.46)"/><rect class="cls-1" x="40.13" y="52.7" width="6.25" height="6.49" transform="translate(-14.79 15.55) rotate(-17.46)"/><rect class="cls-1" x="31.41" y="55.44" width="6.25" height="6.49" transform="translate(-16.01 13.06) rotate(-17.46)"/><rect class="cls-1" x="22.69" y="58.18" width="6.25" height="6.49" transform="translate(-17.24 10.57) rotate(-17.46)"/><rect class="cls-1" x="51.56" y="58.58" width="6.25" height="6.48" transform="translate(-16.03 19.25) rotate(-17.46)"/><rect class="cls-1" x="42.84" y="61.33" width="6.25" height="6.48" transform="translate(-17.25 16.76) rotate(-17.46)"/><rect class="cls-1" x="34.12" y="64.07" width="6.25" height="6.48" transform="translate(-18.48 14.27) rotate(-17.46)"/><rect class="cls-1" x="25.4" y="66.81" width="6.25" height="6.48" transform="translate(-19.7 11.79) rotate(-17.46)"/><path class="cls-1" d="M48.13,18.82a1.84,1.84,0,0,0,1.21-2.3L44.55,1.29A1.84,1.84,0,1,0,41,2.39l4.79,15.23A1.82,1.82,0,0,0,48.13,18.82Z"/><path class="cls-1" d="M17.59,28.43a1.84,1.84,0,0,0,1.2-2.31L14,10.89A1.84,1.84,0,0,0,10.49,12l4.79,15.22A1.84,1.84,0,0,0,17.59,28.43Z"/></g></g></svg>