<svg xmlns="http://www.w3.org/2000/svg" viewBox="0 0 91.59 110.06"><defs><style>.cls-1{fill:#3d84b8;}</style></defs><title>calendar</title><g id="Layer_2" data-name="Layer 2"><g id="Layer_1-2" data-name="Layer 1"><path class="cls-1" d="M74.81,14.15V20a8,8,0,1,1-11.37,0V14.15H28.15V20a7.95,7.95,0,1,1-11.37,0V14.15H0v95.91H91.59V14.15Zm9.42,88.21H7.36V37.63H84.23Z"/><rect class="cls-1" x="68.4" y="47.28" width="9.16" height="9.5"/><rect class="cls-1" x="55.01" y="47.28" width="9.16" height="9.5"/><rect class="cls-1" x="41.62" y="47.28" width="9.15" height="9.5"/><rect class="cls-1" x="68.4" y="60.53" width="9.16" height="9.5"/><rect class="cls-1" x="55.01" y="60.53" width="9.16" height="9.5"/><rect class="cls-1" x="41.62" y="60.53" width="9.15" height="9.5"/><rect class="cls-1" x="28.23" y="60.53" width="9.16" height="9.5"/><rect class="cls-1" x="14.83" y="60.53" width="9.16" height="9.5"/><rect class="cls-1" x="68.4" y="73.77" width="9.16" height="9.51"/><rect class="cls-1" x="55.01" y="73.77" width="9.16" height="9.51"/><rect class="cls-1" x="41.62" y="73.77" width="9.15" height="9.51"/><rect class="cls-1" x="28.23" y="73.77" width="9.16" height="9.51"/><rect class="cls-1" x="14.83" y="73.77" width="9.16" height="9.51"/><rect class="cls-1" x="55.01" y="87.03" width="9.16" height="9.5"/><rect class="cls-1" x="41.62" y="87.03" width="9.15" height="9.5"/><rect class="cls-1" x="28.23" y="87.03" width="9.16" height="9.5"/><rect class="cls-1" x="14.83" y="87.03" width="9.16" height="9.5"/><path class="cls-1" d="M69.34,28.78A2.69,2.69,0,0,0,72,26.09V2.7a2.7,2.7,0,1,0-5.39,0V26.09A2.69,2.69,0,0,0,69.34,28.78Z"/><path class="cls-1" d="M22.42,28.78a2.68,2.68,0,0,0,2.69-2.69V2.7a2.7,2.7,0,1,0-5.39,0V26.09A2.69,2.69,0,0,0,22.42,28.78Z"/></g></g></svg>